<svg width="753" height="599" viewBox="0 0 753 599" fill="none" xmlns="http://www.w3.org/2000/svg">
<g clip-path="url(#clip0)">
<path opacity="0.1" d="M431.608 101.228C383.962 99.5706 338.576 84.1823 295.245 67.3429C251.913 50.5035 208.993 31.8446 162.488 22.924C132.577 17.1856 98.3665 16.3753 74.2711 32.4192C51.0739 47.8885 43.5796 74.5177 39.5526 99.2539C36.5196 117.861 34.738 137.441 43.0495 154.862C48.8139 166.958 59.0542 177.123 66.1289 188.747C90.7691 229.056 73.3583 278.764 46.6568 318.122C34.1417 336.589 19.602 354.217 9.94326 373.856C0.284511 393.494 -4.1915 416.028 4.25991 436.079C12.6451 455.968 32.6178 470.878 54.2469 481.375C98.1898 502.7 149.951 508.799 200.461 512.254C312.236 519.908 424.6 516.593 536.669 513.278C578.146 512.048 587.701 511.416 628.5 505C651.16 501.435 675.98 495.172 692.434 481.515C713.312 464.182 718.488 434.827 704.5 413.096C681.023 376.64 604.932 367.63 588.5 328.5C579.474 306.968 586.881 270.477 600 250.5C628.152 207.657 651.172 175 653 139C653.457 130 663.661 83 643.5 58.5C632.802 45.5 598 40 550.679 63.3135C506 85.3253 473.674 102.687 431.608 101.228Z" fill="#3C70FF"/>
<path d="M320.572 508.645L68.5904 507.415L43.5527 448.653L132.086 442.223L116.656 377.797L291.765 355.086L124.084 296.76L138.896 293.239L408.524 337.252L393.675 437.795L372.451 493.05L320.572 508.645Z" fill="#3C70FF"/>
<path d="M72.4554 482.804C72.4554 482.804 87.9153 480.329 97.1912 491.26C97.1912 491.26 90.3889 496.623 75.7535 489.198L72.4554 482.804Z" fill="#3C70FF"/>
<path d="M70.8358 482.561C70.8358 482.561 60.9709 494.708 65.8297 508.232C65.8297 508.232 73.8688 505.013 74.7449 488.616L70.8358 482.561Z" fill="#3C70FF"/>
<path d="M61.9721 462.59C61.9721 462.59 68.1561 451.239 92.8919 467.128C92.8919 467.128 89.5938 474.76 78.6688 474.141C67.7438 473.522 64.858 468.572 61.9721 462.59Z" fill="#3C70FF"/>
<path d="M60.3746 461.773C60.3746 461.773 47.5429 460.3 46.2987 489.691C46.2987 489.691 54.4335 491.378 60.2126 482.082C65.9917 472.785 63.6211 467.57 60.3746 461.773Z" fill="#3C70FF"/>
<path d="M52.9023 438.326C52.9023 438.326 60.1169 418.319 86.2957 432.551C86.2957 432.551 80.3178 450.907 55.582 445.132L52.9023 438.326Z" fill="#3C70FF"/>
<path d="M44.8632 408.418C44.8632 408.418 58.4679 388.205 82.5853 406.945C82.5853 406.945 74.1339 425.921 46.9245 415.608L44.8632 408.418Z" fill="#3C70FF"/>
<path d="M41.9773 379.955C41.9773 379.955 57.8495 361.384 81.7313 379.955C81.7313 379.955 66.6837 396.249 41.9773 384.699V379.955Z" fill="#3C70FF"/>
<path d="M39.5037 352.309C39.5037 352.309 55.582 332.921 78.4627 351.278C78.4627 351.278 60.3231 368.397 39.5037 356.847V352.309Z" fill="#3C70FF"/>
<path d="M40.9466 327.765C40.9466 327.765 57.8789 302.807 79.2872 319.721C79.2872 319.721 61.1476 341.171 40.9466 332.508V327.765Z" fill="#3C70FF"/>
<path d="M44.8632 299.095C44.8632 299.095 62.7966 274.344 83.616 293.32C83.616 293.32 62.3844 314.77 44.8632 303.633V299.095Z" fill="#3C70FF"/>
<path d="M50.841 273.467C50.841 273.467 72.0726 250.205 90.595 259.471C90.595 259.471 68.4726 284.178 49.9134 279.64L50.841 273.467Z" fill="#3C70FF"/>
<path d="M58.2617 249.173C58.2617 249.173 82.762 220.68 97.0145 230.198C97.0145 230.198 78.9633 252.297 56.5243 254.507L58.2617 249.173Z" fill="#3C70FF"/>
<path d="M68.9732 220.997C68.9732 220.997 90.4183 197.734 106.084 203.509C106.084 203.509 87.7386 227.642 66.0947 228.26L68.9732 220.997Z" fill="#3C70FF"/>
<path d="M78.6688 194.64C78.6688 194.64 102.374 172.365 112.681 176.284C112.681 176.284 95.5716 201.034 77.6381 199.591L78.6688 194.64Z" fill="#3C70FF"/>
<path d="M88.1508 170.302C88.1508 170.302 108.558 143.688 119.696 145.75C119.696 145.75 107.321 169.477 88.1508 173.005V170.302Z" fill="#3C70FF"/>
<path d="M98.4427 137.485C98.4427 137.485 116.479 117.088 126.226 117.132C126.226 117.132 111.989 144.387 97.6992 144.137L98.4427 137.485Z" fill="#3C70FF"/>
<path d="M104.538 115.637L121.964 73.1476C121.964 73.1476 122.833 111.556 102.322 123.519L104.538 115.637Z" fill="#3C70FF"/>
<path d="M111.613 68.7794C111.613 68.7794 114.499 33.2958 112.644 30.4082C112.644 30.4082 125.1 59.9103 111.495 84.4549L111.613 68.7794Z" fill="#3C70FF"/>
<path d="M52.225 437.854C52.225 437.854 34.159 426.65 22.461 454.06C22.461 454.06 38.5393 464.741 54.3526 444.845L52.225 437.854Z" fill="#3C70FF"/>
<path d="M44.2815 407.277C44.2815 407.277 22.1224 397.163 11.3741 425.781C11.3741 425.781 28.4904 437.567 46.2987 414.51L44.2815 407.277Z" fill="#3C70FF"/>
<path d="M40.9466 381.657C40.9466 381.657 25.0745 363.086 1.19263 381.657C1.19263 381.657 16.2403 397.951 40.9466 386.4V381.657Z" fill="#3C70FF"/>
<path d="M38.9589 352.309C38.9589 352.309 22.8806 332.921 0 351.278C0 351.278 18.1396 368.397 38.9589 356.847V352.309Z" fill="#3C70FF"/>
<path d="M40.9466 328.472C40.9466 328.472 29.6683 300.517 5.15329 312.538C5.15329 312.538 18.4046 337.326 39.9454 333.113L40.9466 328.472Z" fill="#3C70FF"/>
<path d="M46.284 298.955C46.284 298.955 35.0719 270.514 10.2109 283.699C10.2109 283.699 25.4352 309.769 45.1797 303.345L46.284 298.955Z" fill="#3C70FF"/>
<path d="M53.2336 273.607C53.2336 273.607 48.8164 242.426 28.2032 239.634C28.2032 239.634 32.5762 272.517 50.4581 279.228L53.2336 273.607Z" fill="#3C70FF"/>
<path d="M58.7844 249.232C58.7844 249.232 57.0617 211.664 40.019 210.353C40.019 210.353 40.5933 238.868 56.863 254.551L58.7844 249.232Z" fill="#3C70FF"/>
<path d="M70.7401 219.944C70.7401 219.944 65.6604 188.703 49.3907 184.887C49.3907 184.887 51.4078 215.141 69.1278 227.612L70.7401 219.944Z" fill="#3C70FF"/>
<path d="M80.5976 194.898C80.5976 194.898 80.4283 162.354 70.4898 157.573C70.4898 157.573 64.3279 187.038 77.7191 199.053L80.5976 194.898Z" fill="#3C70FF"/>
<path d="M88.9091 169.934C88.9091 169.934 87.5177 136.424 77.2258 131.703C77.2258 131.703 73.7069 158.221 87.3705 172.129L88.9091 169.934Z" fill="#3C70FF"/>
<path d="M99.8783 140.159C99.8783 140.159 99.8194 112.904 92.4723 106.51C92.4723 106.51 85.1693 136.365 96.0428 145.64L99.8783 140.159Z" fill="#3C70FF"/>
<path d="M103.677 114.296L96.5286 68.9341C96.5286 68.9341 86.8183 106.105 104.016 122.487L103.677 114.296Z" fill="#3C70FF"/>
<path d="M105.068 69.2066C105.068 69.2066 86.7226 38.71 87.0981 35.3215C87.0981 35.3215 89.049 67.284 112.128 83.2026L105.068 69.2066Z" fill="#3C70FF"/>
<path d="M107.218 60.1976C107.218 60.1976 89.903 16.8836 82.07 13.3772C82.07 13.3772 106.806 25.9589 108.661 58.9601L107.218 60.1976Z" fill="#3C70FF"/>
<path d="M97.6109 144.395L96.4256 144.034C111.039 96.3515 114.683 65.9507 106.695 58.3266L107.542 57.4279C116.015 65.4719 112.577 95.5412 97.6109 144.395Z" fill="#444053"/>
<path d="M57.3709 256.039L55.6188 255.413C57.1722 251.044 58.8433 246.61 60.5954 242.242C75.8492 204.202 88.8355 168.814 97.1618 141.647L98.6857 140.91C90.3447 168.129 77.5866 204.872 62.3181 242.963C60.5734 247.251 58.9096 251.663 57.3709 256.039Z" fill="#444053"/>
<path d="M94.2391 518.486C94.0035 518.228 70.3204 491.54 53.8078 445.979C44.1324 419.305 38.7477 391.264 37.8547 362.902C36.7209 327.448 44.1564 287.861 56.8924 251.899L58.2765 253.519C29.683 334.232 41.0424 403.395 56.1121 445.044C72.448 490.192 95.8661 516.586 96.0943 516.851L94.2391 518.486Z" fill="#444053"/>
<path d="M464.334 461.824C464.334 461.824 447.645 482.207 460.896 513.02L327.647 570.846L314.859 573.527L308.97 547.745L312.908 515.208V497.426L464.334 461.824Z" fill="#D5D6DB"/>
<path d="M43.5527 448.653L227.982 415.011L472.359 453.964L320.572 508.645L43.5527 448.653Z" fill="#3C70FF"/>
<path d="M43.5527 448.653L227.982 415.011L472.359 453.964L320.572 508.645L43.5527 448.653Z" fill="#3C70FF"/>
<path d="M43.5527 448.646C43.5527 448.646 26.3039 481.345 46.1809 511.547L319.674 570.846C319.674 570.846 302.697 544.799 320.55 508.645L43.5527 448.646Z" fill="#3C70FF"/>
<path opacity="0.1" d="M43.5527 448.646C43.5527 448.646 26.3039 481.345 46.1809 511.547L319.674 570.846C319.674 570.846 302.697 544.799 320.55 508.645L43.5527 448.646Z" fill="black"/>
<path opacity="0.1" d="M51.7023 459.983C51.7023 459.983 41.8448 483.909 51.7023 499.393V459.983Z" fill="black"/>
<path d="M319.674 570.846L472.359 505.654C472.359 505.654 480.898 507.496 475.377 513.757C469.856 520.018 322.619 577.107 322.619 577.107L46.1809 511.547L319.674 570.846Z" fill="#3C70FF"/>
<path opacity="0.1" d="M319.674 570.846L472.359 505.654C472.359 505.654 480.898 507.496 475.377 513.757C469.856 520.018 322.619 577.107 322.619 577.107L46.1809 511.547L319.674 570.846Z" fill="black"/>
<path opacity="0.1" d="M307.159 515.23C307.159 515.23 292.435 532.909 307.159 559.428V515.23Z" fill="black"/>
<path opacity="0.1" d="M378.442 514.931L312.399 536.978L312.632 537.677L378.674 515.63L378.442 514.931Z" fill="black"/>
<path opacity="0.1" d="M391.669 512.737L312.378 542.907L312.64 543.596L391.931 513.426L391.669 512.737Z" fill="black"/>
<path opacity="0.1" d="M403.818 512.632L312.821 549.901L313.099 550.582L404.097 513.313L403.818 512.632Z" fill="black"/>
<path opacity="0.1" d="M417.028 509.44L313.883 556.062L314.186 556.733L417.331 510.111L417.028 509.44Z" fill="black"/>
<path opacity="0.1" d="M428.127 509.455L314.699 559.064L314.994 559.739L428.422 510.13L428.127 509.455Z" fill="black"/>
<path opacity="0.1" d="M452.403 505.33L316.41 564.103L316.702 564.779L452.694 506.006L452.403 505.33Z" fill="black"/>
<path opacity="0.3" d="M112.07 452.248L241.638 424.993L320.572 440.094L214.399 474.347L112.07 452.248Z" fill="white"/>
<path d="M472.359 453.964C472.359 453.964 479.058 456.668 475.127 460.845C471.196 465.021 320.55 508.645 320.55 508.645L472.359 453.964Z" fill="#3C70FF"/>
<path d="M537.43 390.975C537.43 390.975 520.748 411.35 533.999 442.171L400.75 499.997L387.962 502.693L382.073 476.911L386.07 444.381V426.576L537.43 390.975Z" fill="#D5D6DB"/>
<path d="M116.656 377.797L301.078 344.162L545.462 383.115L393.675 437.795L116.656 377.797Z" fill="#3A3768"/>
<path d="M116.627 377.797C116.627 377.797 99.3703 410.496 119.247 440.698L392.74 499.997C392.74 499.997 375.771 473.927 393.646 437.788L116.627 377.797Z" fill="#3A3768"/>
<path opacity="0.1" d="M116.627 377.797C116.627 377.797 99.3703 410.496 119.247 440.698L392.74 499.997C392.74 499.997 375.771 473.927 393.646 437.788L307.159 419.055L116.627 377.797Z" fill="black"/>
<path opacity="0.1" d="M124.798 389.133C124.798 389.133 114.948 413.052 124.798 428.543V389.133Z" fill="black"/>
<path d="M392.77 499.997L545.462 434.805C545.462 434.805 553.994 436.646 548.473 442.908C542.951 449.169 395.714 506.258 395.714 506.258L119.277 440.698L392.77 499.997Z" fill="#3A3768"/>
<path opacity="0.1" d="M392.77 499.997L545.462 434.805C545.462 434.805 553.994 436.646 548.473 442.908C542.951 449.169 395.714 506.258 395.714 506.258L119.277 440.698L392.77 499.997Z" fill="black"/>
<path opacity="0.1" d="M380.254 444.381C380.254 444.381 365.531 462.06 380.254 488.579V444.381Z" fill="black"/>
<path opacity="0.1" d="M451.543 444.09L385.5 466.137L385.733 466.835L451.776 444.788L451.543 444.09Z" fill="black"/>
<path opacity="0.1" d="M464.78 441.892L385.489 472.062L385.751 472.751L465.042 442.581L464.78 441.892Z" fill="black"/>
<path opacity="0.1" d="M476.918 441.776L385.921 479.046L386.199 479.727L477.197 442.458L476.918 441.776Z" fill="black"/>
<path opacity="0.1" d="M490.137 438.586L386.991 485.208L387.294 485.88L490.44 439.258L490.137 438.586Z" fill="black"/>
<path opacity="0.1" d="M501.225 438.592L387.797 488.201L388.092 488.876L501.52 439.267L501.225 438.592Z" fill="black"/>
<path opacity="0.1" d="M525.506 434.467L389.513 493.239L389.805 493.916L525.798 435.143L525.506 434.467Z" fill="black"/>
<path opacity="0.45" d="M185.173 381.399L314.741 354.143L393.675 369.244L287.503 403.498L185.173 381.399Z" fill="white"/>
<path d="M545.462 383.115C545.462 383.115 552.154 385.819 548.23 389.988C544.306 394.157 393.675 437.788 393.675 437.788L545.462 383.115Z" fill="#3A3768"/>
<path d="M544.35 309.923C544.35 309.923 527.661 346.512 540.912 377.325L407.663 418.945L394.905 421.648L389.015 395.866L392.954 363.329V345.525L544.35 309.923Z" fill="#D5D6DB"/>
<path d="M123.598 296.752L308.027 263.11L552.412 302.063L400.617 356.744L123.598 296.752Z" fill="#3C70FF"/>
<path d="M123.598 296.745C123.598 296.745 106.32 329.444 126.197 359.646L399.69 418.945C399.69 418.945 382.713 392.876 400.588 356.744L123.598 296.745Z" fill="#3C70FF"/>
<path opacity="0.1" d="M123.598 296.745C123.598 296.745 106.32 329.444 126.197 359.646L399.69 418.945C399.69 418.945 382.713 392.876 400.588 356.744L123.598 296.745Z" fill="black"/>
<path opacity="0.1" d="M131.748 308.082C131.748 308.082 121.89 332.008 131.748 347.492V308.082Z" fill="black"/>
<path d="M399.719 418.945L552.404 369.959C552.404 369.959 560.944 371.8 555.423 378.062C549.901 384.323 402.664 425.206 402.664 425.206L126.226 359.646L399.719 418.945Z" fill="#3C70FF"/>
<path opacity="0.1" d="M399.719 418.945L552.404 369.959C552.404 369.959 560.944 371.8 555.423 378.062C549.901 384.323 402.664 425.206 402.664 425.206L126.226 359.646L399.719 418.945Z" fill="black"/>
<path opacity="0.1" d="M387.204 363.329C387.204 363.329 372.48 381.008 387.204 407.527V363.329Z" fill="black"/>
<path opacity="0.1" d="M458.495 363.037L392.452 385.083L392.685 385.782L458.728 363.735L458.495 363.037Z" fill="black"/>
<path opacity="0.1" d="M471.727 360.843L392.436 391.013L392.697 391.701L471.989 361.531L471.727 360.843Z" fill="black"/>
<path opacity="0.1" d="M483.858 360.731L392.86 398L393.139 398.681L484.136 361.412L483.858 360.731Z" fill="black"/>
<path opacity="0.1" d="M497.087 357.534L393.941 404.156L394.244 404.827L497.39 358.205L497.087 357.534Z" fill="black"/>
<path opacity="0.1" d="M508.179 357.547L394.751 407.156L395.046 407.831L508.473 358.222L508.179 357.547Z" fill="black"/>
<path opacity="0.1" d="M532.457 353.427L396.465 412.199L396.757 412.875L532.749 354.103L532.457 353.427Z" fill="black"/>
<path opacity="0.3" d="M192.115 300.347L321.684 273.092L400.617 288.193L294.445 322.446L192.115 300.347Z" fill="white"/>
<path d="M552.404 302.063C552.404 302.063 559.103 304.767 555.172 308.944C551.241 313.12 400.617 356.744 400.617 356.744L552.404 302.063Z" fill="#3C70FF"/>
<path d="M228.527 78.4513C228.527 78.4513 200.552 76.7645 203.82 96.4031C203.82 96.4031 203.165 99.8726 206.309 101.449C206.309 101.449 206.36 99.9757 209.18 100.484C210.186 100.657 211.209 100.706 212.228 100.631C213.6 100.537 214.905 99.9996 215.945 99.0991C215.945 99.0991 223.815 95.8432 226.878 82.9669C226.878 82.9669 229.145 80.1603 229.086 79.4384L224.345 81.4568C224.345 81.4568 225.957 84.8674 224.691 87.7034C224.691 87.7034 224.537 81.582 223.624 81.722C223.44 81.722 221.172 82.908 221.172 82.908C221.172 82.908 223.948 88.8526 221.85 93.1693C221.85 93.1693 222.645 85.8471 220.304 83.3352L216.976 85.2799C216.976 85.2799 220.223 91.4161 218.021 96.4252C218.021 96.4252 218.588 88.7421 216.277 85.7514L213.258 88.1086C213.258 88.1086 216.313 94.1563 214.451 98.311C214.451 98.311 214.208 89.3682 212.61 88.6905C212.61 88.6905 209.967 91.0183 209.57 91.9759C209.57 91.9759 211.661 96.3957 210.358 98.6866C210.358 98.6866 209.57 92.7273 208.885 92.6978C208.885 92.6978 206.257 96.6462 205.985 99.3275C206.112 96.8277 206.891 94.4049 208.245 92.3C206.73 92.5868 205.333 93.3116 204.225 94.3847C204.225 94.3847 204.63 91.5929 208.9 91.3498C208.9 91.3498 211.072 88.3517 211.653 88.1749C211.653 88.1749 207.406 87.8139 204.836 88.9557C204.836 88.9557 207.104 86.3259 212.426 87.4825L215.371 85.0516C215.371 85.0516 209.791 84.3149 207.42 85.1326C207.42 85.1326 210.152 82.8048 216.174 84.4991L219.42 82.5618C219.42 82.5618 214.657 81.5378 211.823 81.9061C211.823 81.9061 214.812 80.2929 220.37 82.0387L222.681 81.0001C222.681 81.0001 219.199 80.315 218.176 80.2045C217.153 80.094 217.101 79.8141 217.101 79.8141C219.311 79.4509 221.579 79.7058 223.653 80.5507C223.653 80.5507 228.622 78.7607 228.527 78.4513Z" fill="#3C70FF"/>
<path opacity="0.1" d="M622.091 159.172C622.091 159.172 594.116 157.485 597.385 177.123C597.385 177.123 596.73 180.593 599.873 182.169C599.873 182.169 599.925 180.696 602.745 181.204C603.751 181.373 604.774 181.423 605.792 181.352C607.152 181.251 608.444 180.714 609.473 179.819C609.473 179.819 617.35 176.563 620.406 163.687C620.406 163.687 622.673 160.881 622.614 160.159L617.888 162.177C617.888 162.177 619.5 165.588 618.234 168.424C618.234 168.424 618.079 162.302 617.174 162.442C616.99 162.442 614.715 163.628 614.715 163.628C614.715 163.628 617.49 169.573 615.4 173.889C615.4 173.889 616.195 166.567 613.846 164.055L610.519 166C610.519 166 613.765 172.136 611.564 177.145C611.564 177.145 612.131 169.462 609.819 166.472L606.808 168.829C606.808 168.829 609.856 174.877 607.994 179.031C607.994 179.031 607.751 170.088 606.153 169.411C606.153 169.411 603.518 171.738 603.113 172.696C603.113 172.696 605.203 177.116 603.908 179.407C603.908 179.407 603.113 173.447 602.435 173.418C602.435 173.418 599.807 177.366 599.535 180.048C599.662 177.547 600.444 175.123 601.802 173.02C600.286 173.308 598.886 174.032 597.775 175.105C597.775 175.105 598.188 172.313 602.45 172.07C602.45 172.07 604.622 169.072 605.203 168.888C605.203 168.888 600.963 168.534 598.386 169.676C598.386 169.676 600.654 167.046 605.976 168.203L608.921 165.772C608.921 165.772 603.333 165.035 600.97 165.853C600.97 165.853 603.694 163.525 609.724 165.219L612.963 163.282C612.963 163.282 608.2 162.258 605.365 162.626C605.365 162.626 608.354 161.013 613.912 162.759L616.231 161.72C616.231 161.72 612.742 161.035 611.719 160.925C610.695 160.814 610.644 160.534 610.644 160.534C612.854 160.166 615.123 160.422 617.196 161.271C617.196 161.271 622.18 159.481 622.091 159.172Z" fill="#3C70FF"/>
<path opacity="0.1" d="M275.643 199.775C275.643 199.775 263.451 174.486 247.933 186.95C247.933 186.95 244.583 188.07 244.745 191.583C244.745 191.583 246.033 190.913 246.953 193.624C247.297 194.582 247.752 195.497 248.308 196.349C249.061 197.505 250.17 198.384 251.466 198.854C251.466 198.854 258.143 204.143 270.872 200.533C270.872 200.533 274.428 201.145 275.009 200.718L270.946 197.572C270.946 197.572 268.737 200.644 265.66 200.917C265.66 200.917 270.931 197.801 270.364 197.079C270.246 196.931 268.156 195.51 268.156 195.51C268.156 195.51 264.32 200.835 259.535 201.108C259.535 201.108 266.308 198.235 267.353 194.957L264.04 192.998C264.04 192.998 260.264 198.832 254.823 199.347C254.823 199.347 261.802 196.099 263.282 192.622L259.763 191.149C259.763 191.149 255.972 196.762 251.437 197.167C251.437 197.167 259.123 192.593 258.931 190.861C258.931 190.861 255.611 189.698 254.58 189.808C254.58 189.808 251.768 193.779 249.118 193.779C249.118 193.779 253.925 190.176 253.631 189.594C253.631 189.594 248.904 189.226 246.416 190.331C248.658 189.216 251.153 188.708 253.653 188.858C252.661 187.675 251.346 186.807 249.869 186.361C249.869 186.361 252.504 185.359 254.794 188.961C254.794 188.961 258.475 189.396 258.909 189.815C258.909 189.815 257.15 185.941 254.904 184.254C254.904 184.254 258.305 184.939 259.859 190.147L263.429 191.561C263.429 191.561 261.375 186.316 259.483 184.659C259.483 184.659 262.84 185.904 264.305 192.025L267.574 193.911C267.574 193.911 266.153 189.248 264.445 186.957C264.445 186.957 267.309 188.784 268.494 194.486L270.533 196.003C270.533 196.003 269.429 192.622 269.061 191.679C268.693 190.736 268.877 190.545 268.877 190.545C270.278 192.294 271.165 194.398 271.439 196.622C271.439 196.622 275.378 199.996 275.643 199.775Z" fill="#3C70FF"/>
<path opacity="0.1" d="M558.176 123.445C558.176 123.445 545.992 98.1563 530.466 110.62C530.466 110.62 527.124 111.74 527.278 115.254C527.278 115.254 528.574 114.591 529.487 117.294C529.83 118.256 530.287 119.174 530.849 120.027C531.599 121.18 532.706 122.057 534 122.524C534 122.524 540.684 127.813 553.405 124.211C553.405 124.211 556.961 124.815 557.55 124.388L553.508 121.235C553.508 121.235 551.3 124.314 548.23 124.587C548.23 124.587 553.494 121.463 552.927 120.741C552.809 120.594 550.718 119.172 550.718 119.172C550.718 119.172 546.89 124.498 542.098 124.771C542.098 124.771 548.878 121.898 549.923 118.627L546.559 116.683C546.559 116.683 542.79 122.509 537.342 123.032C537.342 123.032 544.321 119.776 545.808 116.3L542.282 114.826C542.282 114.826 538.49 120.447 533.963 120.845C533.963 120.845 541.641 116.27 541.45 114.546C541.45 114.546 538.137 113.375 537.106 113.493C537.106 113.493 534.294 117.456 531.636 117.456C531.636 117.456 536.451 113.854 536.157 113.272C536.157 113.272 531.43 112.904 528.935 114.009C531.177 112.893 533.672 112.385 536.171 112.535C535.183 111.351 533.87 110.483 532.395 110.038C532.395 110.038 535.03 109.036 537.32 112.638C537.32 112.638 541.001 113.08 541.435 113.5C541.435 113.5 539.676 109.618 537.423 107.931C537.423 107.931 540.824 108.624 542.377 113.861L545.955 115.276C545.955 115.276 543.901 110.023 542.009 108.366C542.009 108.366 545.366 109.611 546.824 115.732L550.1 117.618C550.1 117.618 548.672 112.963 546.964 110.664C546.964 110.664 549.835 112.491 551.013 118.193L553.052 119.71C553.052 119.71 551.955 116.329 551.58 115.386C551.204 114.443 551.396 114.259 551.396 114.259C552.792 116.01 553.676 118.113 553.95 120.336C553.95 120.336 557.948 123.681 558.176 123.445Z" fill="#3C70FF"/>
<path opacity="0.1" d="M597.113 248.532C597.113 248.532 584.929 223.236 569.381 235.7C569.381 235.7 566.038 236.82 566.193 240.334C566.193 240.334 567.489 239.671 568.401 242.374C568.742 243.336 569.197 244.254 569.756 245.107C570.507 246.261 571.613 247.137 572.907 247.604C572.907 247.604 579.591 252.901 592.32 249.291C592.32 249.291 595.869 249.903 596.457 249.468L592.394 246.323C592.394 246.323 590.185 249.402 587.108 249.674C587.108 249.674 592.372 246.551 591.805 245.829C591.687 245.682 589.596 244.26 589.596 244.26C589.596 244.26 585.768 249.586 580.975 249.866C580.975 249.866 587.756 246.985 588.801 243.715L585.481 241.755C585.481 241.755 581.712 247.59 576.264 248.105C576.264 248.105 583.243 244.849 584.73 241.372L581.204 239.899C581.204 239.899 577.412 245.512 572.885 245.917C572.885 245.917 580.571 241.343 580.379 239.612C580.379 239.612 577.059 238.441 576.028 238.558C576.028 238.558 573.216 242.521 570.558 242.521C570.558 242.521 575.373 238.919 575.079 238.337C575.079 238.337 570.352 237.969 567.857 239.074C570.102 237.959 572.599 237.451 575.101 237.601C574.111 236.415 572.796 235.547 571.317 235.104C571.317 235.104 573.952 234.094 576.242 237.704C576.242 237.704 579.923 238.139 580.357 238.558C580.357 238.558 578.598 234.684 576.352 232.989C576.352 232.989 579.753 233.682 581.307 238.919L584.877 240.334C584.877 240.334 582.823 235.081 580.931 233.431C580.931 233.431 584.288 234.669 585.746 240.798L589.022 242.676C589.022 242.676 587.594 238.021 585.886 235.722C585.886 235.722 588.757 237.549 589.942 243.258L591.981 244.731C591.981 244.731 590.877 241.35 590.509 240.407C590.141 239.464 590.325 239.28 590.325 239.28C591.725 241.029 592.61 243.133 592.88 245.358C592.88 245.358 596.884 248.753 597.113 248.532Z" fill="#3C70FF"/>
<path opacity="0.1" d="M148.673 577.638C158.02 577.638 165.598 576.79 165.598 575.745C165.598 574.699 158.02 573.851 148.673 573.851C139.325 573.851 131.748 574.699 131.748 575.745C131.748 576.79 139.325 577.638 148.673 577.638Z" fill="#3C70FF"/>
<path opacity="0.1" d="M37.7221 545.462C47.0695 545.462 54.647 544.614 54.647 543.568C54.647 542.523 47.0695 541.675 37.7221 541.675C28.3748 541.675 20.7972 542.523 20.7972 543.568C20.7972 544.614 28.3748 545.462 37.7221 545.462Z" fill="#3C70FF"/>
<path opacity="0.1" d="M233.246 599.007C242.593 599.007 250.171 598.16 250.171 597.114C250.171 596.069 242.593 595.221 233.246 595.221C223.898 595.221 216.321 596.069 216.321 597.114C216.321 598.16 223.898 599.007 233.246 599.007Z" fill="#3C70FF"/>
<path opacity="0.1" d="M525.798 543.274C535.146 543.274 542.723 542.426 542.723 541.381C542.723 540.335 535.146 539.487 525.798 539.487C516.451 539.487 508.873 540.335 508.873 541.381C508.873 542.426 516.451 543.274 525.798 543.274Z" fill="#3C70FF"/>
<path opacity="0.1" d="M434.688 588.076C445.743 588.076 454.705 586.536 454.705 584.636C454.705 582.736 445.743 581.196 434.688 581.196C423.633 581.196 414.671 582.736 414.671 584.636C414.671 586.536 423.633 588.076 434.688 588.076Z" fill="#3C70FF"/>
<path d="M443.618 550.058C443.618 550.058 415.746 564.467 430.146 581.439C430.146 581.439 431.5 585.122 435.417 584.864C435.417 584.864 434.637 583.435 437.625 582.293C438.689 581.882 439.7 581.345 440.636 580.695C441.902 579.819 442.848 578.555 443.331 577.093C443.331 577.093 449.029 569.461 444.612 555.34C444.612 555.34 445.186 551.347 444.685 550.699L441.299 555.347C441.299 555.347 444.796 557.697 445.201 561.152C445.201 561.152 441.52 555.355 440.784 555.995C440.622 556.128 439.105 558.537 439.105 558.537C439.105 558.537 445.171 562.655 445.62 568.003C445.62 568.003 442.205 560.511 438.516 559.443L436.403 563.214C436.403 563.214 443.029 567.251 443.765 573.321C443.765 573.321 439.915 565.623 435.984 564.069L434.43 568.054C434.43 568.054 440.82 572.12 441.409 577.174C441.409 577.174 436.065 568.724 434.143 568.99C434.143 568.99 432.936 572.732 433.098 573.888C433.098 573.888 437.611 576.908 437.692 579.877C437.692 579.877 433.525 574.61 432.884 574.956C432.884 574.956 432.619 580.253 433.9 583.008C433.9 583.008 431.692 579.074 432.053 574.956C430.761 576.099 429.832 577.594 429.38 579.258C429.38 579.258 428.18 576.349 432.134 573.667C432.134 573.667 432.509 569.549 432.965 569.041C432.965 569.041 428.688 571.133 426.87 573.697C426.87 573.697 427.54 569.874 433.341 567.973L434.813 563.936C434.813 563.936 429.012 566.397 427.223 568.562C427.223 568.562 428.511 564.769 435.27 562.949L437.272 559.266C437.272 559.266 432.119 561.005 429.601 562.949C429.601 562.949 431.552 559.686 437.89 558.183L439.517 555.863C439.517 555.863 435.778 557.196 434.732 557.675C433.687 558.154 433.481 557.918 433.481 557.918C435.392 556.301 437.713 555.245 440.187 554.868C440.187 554.868 443.876 550.309 443.618 550.058Z" fill="#3C70FF"/>
<path d="M526.343 277.924C521.529 264.834 495.026 263.604 483.527 266.941C475.355 269.32 458.128 272.001 448.926 273.35L448.33 272.782C449.522 272.429 449.552 271.56 449.405 270.27C449.319 268.571 449.343 266.869 449.478 265.173C455.117 266.926 460.138 262.779 460.138 262.779C466.764 259.832 464.982 247.221 466.248 243.774C467.198 241.196 468.221 226.006 468.678 218.434H468.774L468.825 215.892C468.891 214.795 468.921 214.154 468.921 214.154C468.921 214.154 469.569 195.635 470.835 191.885C472.013 188.438 472.97 171.068 473.117 168.313C473.117 168.077 473.117 167.952 473.117 167.952L473.021 166.346C473.088 165.175 473.117 163.871 473.11 162.501C473.11 156.203 472.454 148.269 472.373 146.988C472.373 146.803 472.373 146.582 472.373 146.317C472.425 143.629 472.086 130.163 460.639 125.073C456.42 123.187 451.348 120.94 446.438 118.753C445.171 107.814 442.278 96.9335 442.529 85.9134C442.529 84.256 442.676 82.5986 442.838 80.9485C442.838 81.4273 442.786 81.9135 442.779 82.4218C442.779 83.4899 442.779 84.5654 442.779 85.6335C443.213 71.8511 448.418 57.9951 447.932 44.5073C447.888 45.8259 447.792 47.1518 447.667 48.4778C447.921 43.9157 447.444 39.3423 446.254 34.9311C445.812 33.3768 445.216 31.771 443.942 30.7323C442.738 29.8958 441.358 29.3488 439.908 29.1338C436.424 28.2416 432.885 27.5821 429.314 27.1596C428.771 25.4976 427.966 23.9333 426.929 22.5262C419.464 12.2723 408.406 2.63715 395.332 0.42725C388.772 -0.677699 381.226 0.243091 376.765 4.93544C376.299 5.34765 375.861 5.79062 375.455 6.26138C373.055 9.12688 372.024 12.8911 369.565 15.7492C369.403 15.9407 369.219 16.1175 369.042 16.3017C364.228 20.611 356.726 21.5097 351.374 25.377C350.431 26.0712 349.547 26.8424 348.731 27.6826C346.575 29.821 344.641 32.1731 342.959 34.7028C340.552 38.0913 338.079 41.6197 337.313 45.6638C335.774 53.7668 341.288 61.4499 342.312 69.6044C344.594 87.8508 324.415 104.042 328.236 122.045C329.255 126.468 331.507 130.511 334.729 133.706C326.859 140.837 320.16 147.754 320.16 147.754V148.166H318.916L319.041 149.64H318.916L319.6 157.632L318.916 169.271C318.916 169.271 318.916 169.396 318.916 169.632V169.691V170.007C318.916 170.007 318.916 170.133 318.916 170.368H318.96C319.188 174.633 320.094 189.97 321.168 193.204C322.435 196.953 323.075 215.472 323.075 215.472C323.075 215.472 324.474 241.645 325.755 245.107C327.036 248.569 325.217 261.144 331.865 264.112C333.81 265.605 336.113 266.56 338.542 266.882C338.204 269.637 338.417 271.633 339.514 272.259C339.984 272.535 340.516 272.688 341.06 272.701C340.609 273.371 340.208 274.072 339.86 274.801C337.221 274.525 334.629 273.914 332.145 272.981C325.004 270.035 301.306 263.405 294.423 268.068C287.539 272.731 270.975 276.959 278.624 295.728C286.273 314.498 289.836 314.969 289.836 314.969C292.191 316.68 294.256 318.756 295.954 321.12C298.251 324.575 319.652 332.479 325.004 332.479C327.279 332.444 329.553 332.557 331.814 332.818C331.814 332.818 326.005 337.915 326.778 340.877C327.551 343.838 325.011 367.543 325.011 367.543C325.011 367.543 330.901 373.48 333.418 365.694L333.507 365.812C333.978 366.453 336.525 369.347 341.318 365.694C343.279 364.205 345.363 362.884 347.546 361.745L370.75 358.46C373.17 358.309 375.595 358.292 378.017 358.408C381.698 358.71 385.312 356.53 387.587 354.843C392.394 356.67 397.798 358.666 400.367 359.396C405.579 360.869 429.535 367.3 435.137 365.289C436.302 364.825 437.337 364.087 438.156 363.138L443.5 363.307L440.997 363.808C440.997 363.808 445.871 363.889 452.496 363.977L452.217 364.139L460.528 364.066C472.69 364.176 486.354 364.213 488.15 363.808C490.962 363.182 505.575 363.624 509.882 363.808H511.082C511.082 363.808 527.138 360.604 520.513 344.302C515.418 331.779 499.76 328.14 492.81 327.138C494.768 326.748 496.454 326.446 497.573 326.269C502.425 325.533 511.848 321.113 512.613 319.603C513.379 318.093 521.278 313.71 523.318 311.212C525.357 308.715 531.18 291.014 526.343 277.924ZM393.351 314.557L392.564 314.815L392.034 314.991L391.018 315.993C390.208 315.448 389.339 314.874 388.434 314.284C390.031 314.38 391.673 314.476 393.351 314.557Z" fill="url(#paint0_linear)"/>
<path d="M440.291 236.886C440.291 236.886 451.554 266.352 457.959 263.405C464.364 260.458 462.626 247.936 463.848 244.503C465.071 241.07 466.425 215.038 466.425 215.038C466.425 215.038 467.043 196.622 468.266 192.895C469.399 189.469 470.32 172.195 470.474 169.477C470.474 169.241 470.474 169.116 470.474 169.116L469.259 147.754L462.383 146.037L446.438 151.93L444.229 164.549L443.368 169.477L443 171.576L440.291 236.886Z" fill="#BE6F72"/>
<path opacity="0.1" d="M444.001 231.951C444.001 231.951 454.749 240.754 457.988 241.527C461.228 242.3 463.215 249.166 463.215 249.166" fill="black"/>
<path d="M352.206 238.175C352.206 238.175 340.942 267.641 334.537 264.694C328.133 261.748 329.87 249.225 328.648 245.792C327.426 242.359 326.071 216.327 326.071 216.327C326.071 216.327 325.453 197.911 324.231 194.184C323.097 190.758 322.177 173.484 322.022 170.766C322.022 170.53 322.022 170.405 322.022 170.405L323.244 149.043L330.12 147.326L346.066 153.22L348.275 165.838L349.136 170.766L349.504 172.866L352.206 238.175Z" fill="#BE6F72"/>
<path d="M425.552 80.4918H400.411V119.703H425.552V80.4918Z" fill="#3E373A"/>
<path opacity="0.1" d="M425.552 80.4918H400.411V119.703H425.552V80.4918Z" fill="black"/>
<path d="M347.789 267.523C347.789 267.523 339.197 276.974 342.385 278.69C345.573 280.407 366.193 312.575 366.193 312.575C366.193 312.575 433.922 320.921 446.695 308.399C459.468 295.876 459.21 273.504 459.21 273.504C459.21 273.504 448.948 275.714 447.829 274.513C446.71 273.313 440.563 267.523 440.563 267.523C440.563 267.523 353.678 262.249 347.789 267.523Z" fill="#4B4B5B"/>
<path opacity="0.02" d="M347.789 267.523C347.789 267.523 339.197 276.974 342.385 278.69C345.573 280.407 366.193 312.575 366.193 312.575C366.193 312.575 433.922 320.921 446.695 308.399C459.468 295.876 459.21 273.504 459.21 273.504C459.21 273.504 448.948 275.714 447.829 274.513C446.71 273.313 440.563 267.523 440.563 267.523C440.563 267.523 353.678 262.249 347.789 267.523Z" fill="black"/>
<path d="M469.716 148.063L447.63 165.742L440.953 166.228L438.502 166.405L397.327 169.425L354.628 166.302L348.275 165.838L340.177 165.249L323.244 149.043C323.244 149.043 335.229 136.196 345.727 127.526C349.865 124.1 353.774 121.331 356.623 120.241L357.109 120.071C358.901 119.372 360.501 118.256 361.776 116.815C370.066 108.263 377.729 87.1584 377.729 87.1584C377.729 87.1584 414.296 68.2564 409.879 93.0514C405.462 117.846 426.318 111.718 426.318 111.718L433.194 114.856L435.91 116.101L442.838 119.276L458.467 126.45C470.732 132.1 469.716 148.063 469.716 148.063Z" fill="#BE6F72"/>
<path opacity="0.1" d="M395.611 107.349C413.773 107.349 428.497 92.6172 428.497 74.4441C428.497 56.2709 413.773 41.5387 395.611 41.5387C377.449 41.5387 362.726 56.2709 362.726 74.4441C362.726 92.6172 377.449 107.349 395.611 107.349Z" fill="black"/>
<path opacity="0.1" d="M469.767 171.503H322.022C322.022 171.267 322.022 171.142 322.022 171.142L323.244 149.779C323.244 149.779 335.229 136.933 345.727 128.262L438.487 124.579L442.801 120.027L458.43 127.202C470.702 132.844 469.716 148.807 469.716 148.807C469.716 148.807 471.394 167.304 469.767 171.503Z" fill="black"/>
<path d="M469.767 170.766H322.022C322.022 170.53 322.022 170.405 322.022 170.405L323.244 149.043C323.244 149.043 335.229 136.196 345.727 127.526L438.487 123.843L442.801 119.29L458.43 126.465C470.702 132.108 469.716 148.07 469.716 148.07C469.716 148.07 471.394 166.567 469.767 170.766Z" fill="#E7C7CA"/>
<path opacity="0.1" d="M371.928 110.863C371.928 110.863 395.236 140.579 426.281 110.252C457.326 79.9246 429.719 177.897 429.719 177.897L362.726 185.852L371.928 110.863Z" fill="black"/>
<path d="M371.928 112.336C371.928 112.336 395.236 142.052 426.281 111.725C457.326 81.3979 429.719 179.37 429.719 179.37L362.726 187.326L371.928 112.336Z" fill="#E7C7CA"/>
<path opacity="0.1" d="M435.873 117.552L438.34 155.186L440.982 167.709L443 177.285C443 177.285 448.153 250.949 446.681 254.632C445.208 258.315 447.417 261.261 447.726 263.221C448.035 265.18 447.417 270.101 447.66 272.311C447.903 274.521 447.66 275.501 442.02 274.712C436.381 273.924 428.519 272.554 428.519 272.554C428.519 272.554 408.642 274.027 401.773 271.574C394.905 269.121 381.896 269.114 381.896 269.114C381.896 269.114 362.262 269.607 355.887 268.871C349.511 268.134 346.066 276.731 341.899 274.27C337.733 271.81 346.802 248.002 349.747 241.122C352.692 234.242 345.823 216.813 345.823 216.813L354.657 167.775L356.623 156.66V121.714L357.109 121.544C358.901 120.845 360.501 119.729 361.776 118.288L363.985 153.455L433.186 155.916V116.336" fill="black"/>
<path d="M435.873 116.079L438.34 153.713L440.982 166.236L443 175.812C443 175.812 448.153 249.475 446.681 253.158C445.208 256.842 447.417 259.788 447.726 261.748C448.035 263.707 447.417 268.628 447.66 270.838C447.903 273.048 447.66 274.027 442.02 273.239C436.381 272.451 428.519 271.081 428.519 271.081C428.519 271.081 408.642 272.554 401.773 270.101C394.905 267.648 381.896 267.641 381.896 267.641C381.896 267.641 362.262 268.134 355.887 267.398C349.511 266.661 346.066 275.257 341.899 272.797C337.733 270.337 346.802 246.529 349.747 239.649C352.692 232.768 345.823 215.34 345.823 215.34L354.657 166.302L356.623 155.186V120.241L357.109 120.071C358.901 119.372 360.501 118.256 361.776 116.815L363.985 151.982L433.186 154.442V114.863" fill="#E7C7CA"/>
<path opacity="0.1" d="M443.832 37.5388C443.412 35.9992 442.83 34.4007 441.623 33.3694C440.47 32.5411 439.139 31.996 437.736 31.7783C434.378 30.8948 430.964 30.2402 427.518 29.8189C427.025 28.1832 426.28 26.6347 425.309 25.2297C418.095 15.0347 407.42 5.42161 394.861 3.24855C388.286 2.10677 380.667 3.13068 376.456 8.31658C374.144 11.1673 373.15 14.9463 370.817 17.7455C366.319 23.1818 358.198 23.8522 352.53 28.0583C349.504 30.2682 347.31 33.4726 345.168 36.5812C342.849 39.9476 340.464 43.4539 339.728 47.476C338.255 55.5126 343.563 63.1736 344.542 71.2839C346.751 89.4272 327.315 105.523 330.989 123.423C333.131 133.861 342.768 141.212 352.736 144.94C356.248 146.258 360.26 147.57 361.901 150.943C362.638 152.417 362.763 154.118 363.455 155.606C365.781 160.571 373.43 160.763 377.538 157.146C381.646 153.529 382.942 147.68 383.428 142.222C385.401 118.384 375.86 94.8341 376.971 70.9377C377.302 63.7113 379.334 55.5126 385.805 52.242C394.515 47.8222 404.99 55.1885 414.576 53.7815C419.111 64.8247 420.074 77.0125 417.329 88.6316C415.805 94.9888 413.169 101.154 412.978 107.71C412.691 117.692 418.072 126.811 422.725 135.636C423.724 137.286 424.391 139.115 424.691 141.021C424.764 142.954 424.404 144.88 423.638 146.656C421.01 153.735 416.475 160.306 415.96 167.842C415.809 168.721 416.007 169.625 416.512 170.361C417.03 170.852 417.7 171.153 418.411 171.215C426.362 172.578 433.238 165.529 437.118 158.45C441.443 150.631 443.964 141.942 444.494 133.021C445.297 118.023 439.922 103.268 440.254 88.2559C440.637 71.1881 448.344 54.0025 443.832 37.5388Z" fill="black"/>
<path d="M444.568 36.8021C444.148 35.2626 443.567 33.6641 442.359 32.6328C441.206 31.8045 439.875 31.2594 438.472 31.0417C435.114 30.1582 431.7 29.5035 428.254 29.0822C427.761 27.4466 427.016 25.8981 426.045 24.493C418.831 14.298 408.156 4.68498 395.597 2.51191C389.023 1.37013 381.403 2.39405 377.192 7.57994C374.88 10.4307 373.887 14.2096 371.553 17.0088C367.055 22.4452 358.935 23.1155 353.266 27.3217C350.24 29.5316 348.046 32.7359 345.904 35.8445C343.585 39.2109 341.2 42.7173 340.464 46.7393C338.991 54.776 344.299 62.437 345.278 70.5473C347.487 88.6905 328.052 104.786 331.725 122.686C333.867 133.124 343.504 140.476 353.472 144.203C356.984 145.522 360.996 146.833 362.638 150.207C363.374 151.68 363.499 153.382 364.191 154.87C366.517 159.834 374.166 160.026 378.274 156.409C382.382 152.792 383.678 146.943 384.164 141.485C386.137 117.648 376.596 94.0974 377.707 70.2011C378.039 62.9747 380.071 54.776 386.542 51.5053C395.251 47.0855 405.727 54.4519 415.312 53.0449C419.847 64.088 420.81 76.2759 418.065 87.895C416.541 94.2521 413.906 100.418 413.714 106.974C413.427 116.955 418.809 126.075 423.461 134.899C424.46 136.55 425.127 138.379 425.427 140.284C425.5 142.218 425.14 144.143 424.374 145.919C421.746 152.999 417.211 159.569 416.696 167.105C416.545 167.985 416.743 168.889 417.248 169.624C417.767 170.115 418.436 170.416 419.147 170.479C427.098 171.842 433.974 164.792 437.854 157.713C442.179 149.894 444.7 141.205 445.23 132.284C446.033 117.287 440.659 102.532 440.99 87.5193C441.373 70.4515 449.081 53.2659 444.568 36.8021Z" fill="#3E373A"/>
<path d="M428.305 362.961L457.51 363.896L453.321 342.225L430.948 344.354L428.305 362.961Z" fill="#C3C7D9"/>
<path d="M518.797 311.596C516.832 314.049 509.227 318.468 508.491 319.942C507.754 321.415 498.677 325.835 494.01 326.571C489.342 327.308 474.626 330.505 471.924 332.221C469.988 333.459 454.447 337.378 444.236 339.551C441.471 340.205 438.672 340.71 435.851 341.061C431.434 341.304 383.096 324.855 383.096 324.855L392.416 315.279L392.932 315.102C395.567 314.211 407.744 310.093 414.502 308.133C422.114 305.923 430.948 296.841 430.948 296.841C430.948 296.841 443.949 292.421 445.672 291.927C447.395 291.434 441.255 274.742 441.255 274.742C441.255 274.742 469.473 270.823 480.516 267.501C491.558 264.179 517.082 265.409 521.742 278.425C526.402 291.441 520.792 309.143 518.797 311.596Z" fill="#4B4B5B"/>
<path d="M390.208 353.09C390.208 353.09 384.569 358.983 378.922 358.497C373.276 358.011 353.531 359.97 353.531 359.97C349.953 361.398 346.602 363.341 343.585 365.738C338.969 369.377 336.518 366.475 336.061 365.856L335.98 365.738C333.522 373.48 327.882 367.58 327.882 367.58C327.882 367.58 330.334 344.007 329.583 341.061C328.832 338.114 334.434 333.054 334.434 333.054L341.06 331.367L357.845 327.065L381.896 335.411L390.208 353.09Z" fill="#E7C7CA"/>
<path opacity="0.1" d="M341.031 331.367L336.061 365.856L335.98 365.738C333.522 373.48 327.882 367.58 327.882 367.58C327.882 367.58 330.334 344.007 329.583 341.061C328.832 338.114 334.434 333.054 334.434 333.054L341.031 331.367Z" fill="black"/>
<path opacity="0.1" d="M375.764 233.262C375.764 233.262 388.765 237.682 400.058 233.262H375.764Z" fill="black"/>
<path opacity="0.1" d="M420.148 241.615C420.148 241.615 425.545 244.312 429.719 241.615H420.148Z" fill="black"/>
<path opacity="0.1" d="M420.148 248.009C420.148 248.009 429.226 249.225 430.948 246.772L420.148 248.009Z" fill="black"/>
<path opacity="0.1" d="M417.204 261.748C417.204 261.748 434.254 259.538 438.487 256.591L417.204 261.748Z" fill="black"/>
<path opacity="0.1" d="M365.177 256.591C365.177 256.591 374.748 261.991 381.867 261.748L365.177 256.591Z" fill="black"/>
<path opacity="0.1" d="M444.229 339.551C441.463 340.205 438.664 340.71 435.844 341.061C431.427 341.304 383.089 324.855 383.089 324.855L392.409 315.279L392.924 315.102C394.397 316.141 395.604 317.032 396.465 317.71C400.522 320.907 404.438 316.73 405.911 316.73C407.383 316.73 420.141 327.286 420.141 327.286C420.141 327.286 431.92 329.989 433.886 332.442C435.851 334.895 442.72 334.409 443.942 336.125C444.31 336.656 444.354 337.96 444.229 339.551Z" fill="black"/>
<path d="M353.531 275.744C353.531 275.744 341.62 276.429 334.751 273.534C327.882 270.639 305.061 263.958 298.435 268.65C291.809 273.342 275.856 277.489 283.218 296.156C290.58 314.822 294.018 315.308 294.018 315.308C296.296 317.017 298.284 319.082 299.907 321.422C302.116 324.862 322.729 332.715 327.882 332.715C333.036 332.715 342.113 332.715 354.871 341.554C367.629 350.394 379.165 351.381 379.165 351.381C379.165 351.381 395.361 358.011 400.404 359.484C405.447 360.957 428.489 367.337 433.893 365.377C439.297 363.418 442.727 351.131 442.727 351.131C442.727 351.131 445.179 340.081 443.949 338.365C442.72 336.648 435.851 337.135 433.893 334.682C431.935 332.229 420.148 329.525 420.148 329.525C420.148 329.525 407.42 318.962 405.947 318.962C404.475 318.962 400.559 323.131 396.502 319.942C388.422 313.953 379.933 308.538 371.096 303.736C361.776 298.822 353.531 275.744 353.531 275.744Z" fill="#4B4B5B"/>
<path opacity="0.1" d="M329.583 282.867C331.704 282.433 333.896 282.496 335.989 283.049C338.082 283.602 340.019 284.631 341.649 286.056C347.538 290.97 367.357 300.833 367.357 300.833" fill="black"/>
<path opacity="0.1" d="M476.835 282.557C476.835 282.557 450.575 286.535 445.672 291.935L476.835 282.557Z" fill="black"/>
<path d="M507.018 363.896H505.863C501.71 363.749 487.642 363.307 484.933 363.896C481.745 364.633 439.532 363.896 439.532 363.896L447.785 362.18C447.785 362.18 444.722 351.44 446.666 350.549C446.666 350.549 435.623 343.271 443.949 338.357C452.276 333.444 461.25 335.514 461.25 335.514L482.15 328.428L486.162 327.065C486.162 327.065 509.72 328.295 516.096 344.501C522.471 360.707 507.018 363.896 507.018 363.896Z" fill="#E7C7CA"/>
<path opacity="0.1" d="M507.018 363.896H505.863C512.716 358.239 528.22 341.017 482.15 328.464L486.162 327.102C486.162 327.102 509.72 328.332 516.096 344.538C522.471 360.744 507.018 363.896 507.018 363.896Z" fill="black"/>
<path d="M463.708 344.803C464.42 344.803 464.997 344.226 464.997 343.514C464.997 342.802 464.42 342.225 463.708 342.225C462.997 342.225 462.42 342.802 462.42 343.514C462.42 344.226 462.997 344.803 463.708 344.803Z" fill="#4B4B5B"/>
<path d="M456.222 346.932C456.933 346.932 457.51 346.355 457.51 345.643C457.51 344.931 456.933 344.354 456.222 344.354C455.51 344.354 454.933 344.931 454.933 345.643C454.933 346.355 455.51 346.932 456.222 346.932Z" fill="#4B4B5B"/>
<g opacity="0.1">
<path opacity="0.1" d="M419.744 73.2286C420.029 65.1263 418.589 57.0558 415.518 49.5533C405.947 50.9823 395.464 43.5939 386.748 48.0137C380.299 51.2843 378.274 59.4831 377.913 66.7094C377.825 68.6173 377.81 70.5252 377.847 72.4331C377.847 71.7554 377.847 71.0703 377.913 70.3926C378.252 63.1662 380.277 54.9675 386.748 51.6969C395.464 47.2771 405.933 54.6434 415.518 53.2364C418.118 59.5914 419.55 66.3643 419.744 73.2286Z" fill="black"/>
<path opacity="0.1" d="M345.58 71.8806C345.706 70.2755 345.674 68.6619 345.485 67.063C344.704 60.5807 341.163 54.3856 340.523 48.0653C339.698 55.6894 344.55 63.0115 345.485 70.7462C345.58 71.144 345.58 71.4975 345.58 71.8806Z" fill="black"/>
<path opacity="0.1" d="M384.37 137.986C383.913 143.452 382.625 149.293 378.48 152.918C374.336 156.542 366.701 156.343 364.397 151.378C363.661 149.905 363.551 148.188 362.836 146.715C361.202 143.341 357.182 142.03 353.671 140.712C343.696 136.977 334.074 129.662 331.931 119.195C331.74 118.246 331.61 117.287 331.541 116.322C331.36 118.514 331.491 120.722 331.931 122.878C334.074 133.316 343.71 140.66 353.671 144.395C357.182 145.713 361.202 147.024 362.836 150.398C363.573 151.872 363.698 153.573 364.397 155.061C366.716 160.026 374.365 160.218 378.48 156.601C382.596 152.984 383.877 147.135 384.37 141.669C384.594 138.792 384.67 135.906 384.598 133.021C384.598 134.693 384.502 136.343 384.37 137.986Z" fill="black"/>
<path opacity="0.1" d="M441.233 84.0277C441.233 85.0958 441.233 86.1565 441.233 87.2173C441.645 73.5159 446.666 59.7409 446.173 46.3268C445.79 58.7317 441.513 71.4165 441.233 84.0277Z" fill="black"/>
<path opacity="0.1" d="M425.434 139.452C425.615 138.578 425.672 137.683 425.604 136.793C425.307 134.886 424.639 133.057 423.638 131.408C419.383 123.305 414.531 115.01 413.957 106.016C413.957 106.399 413.906 106.753 413.898 107.165C413.604 117.139 418.985 126.266 423.638 135.091C424.429 136.458 425.033 137.925 425.434 139.452Z" fill="black"/>
<path opacity="0.1" d="M445.466 128.793C444.916 137.717 442.378 146.406 438.038 154.221C434.151 161.3 427.282 168.35 419.324 166.987C418.611 166.926 417.94 166.622 417.424 166.125C417.275 165.957 417.158 165.762 417.078 165.551C416.99 166.125 416.917 166.707 416.872 167.297C416.72 168.174 416.918 169.076 417.424 169.809C417.94 170.305 418.611 170.609 419.324 170.67C427.282 172.033 434.151 164.984 438.038 157.905C442.378 150.089 444.916 141.4 445.466 132.476C445.554 130.752 445.561 129.036 445.51 127.32C445.495 127.813 445.495 128.299 445.466 128.793Z" fill="black"/>
</g>
<path opacity="0.1" d="M446.666 350.549C446.666 350.549 465.299 358.372 477.586 341.061" stroke="black" stroke-miterlimit="10"/>
<path opacity="0.1" d="M450.332 364.221C450.332 364.221 465.549 354.32 484.933 363.896" stroke="black" stroke-miterlimit="10"/>
<path opacity="0.1" d="M348.473 361.974C348.473 361.974 354.863 347.551 371.928 358.548" stroke="black" stroke-miterlimit="10"/>
<path opacity="0.1" d="M327.757 148.675L340.788 136.888C340.788 136.888 391.312 133.574 393.403 150.759C393.403 150.759 411.314 130.384 448.985 134.922L464.923 147.621L420.87 166.965L378.061 181.823L346.53 167.702L327.757 148.675Z" fill="black"/>
<path d="M327.757 149.411L340.788 137.625C340.788 137.625 391.312 134.31 393.403 151.496C393.403 151.496 411.314 131.121 448.985 135.658L464.923 148.358L420.87 167.702L378.061 182.56L346.53 168.438L327.757 149.411Z" fill="#D5D6DB"/>
<path opacity="0.1" d="M321.993 150.884L327.757 219.885L388.861 222.957L386.21 154.251L386.159 153.094L321.993 150.884Z" fill="black"/>
<path d="M321.993 149.411L327.757 218.412L388.861 221.483L386.21 152.778L386.159 151.621L321.993 149.411Z" fill="#3C70FF"/>
<path opacity="0.1" d="M467.721 149.411L404.688 158.87V228.179L466.285 219.273L467.721 149.411Z" fill="black"/>
<path d="M467.721 147.938L404.688 157.396V226.706L466.285 217.8L467.721 147.938Z" fill="#3C70FF"/>
<path opacity="0.3" d="M452.857 164.851L418.809 168.637L419.552 180.247L452.835 176.608L452.857 164.851Z" fill="white"/>
<path d="M331.07 255.361L334.537 264.694C334.537 264.694 339.691 269.114 345.33 266.904C350.969 264.694 355.887 263.597 358.338 261.446C360.79 259.295 364.228 248.488 364.228 248.488C364.228 248.488 367.666 236.702 371.096 233.756C374.527 230.809 383.612 190.213 371.096 194.184C358.581 198.154 349.011 234.986 349.011 234.986C349.011 234.986 346.802 237.682 343.615 237.932C340.427 238.183 334.044 237.439 332.815 240.142C331.585 242.846 327.389 249.961 331.07 255.361Z" fill="#BE6F72"/>
<path opacity="0.1" d="M404.689 158.862C401.461 159.59 398.109 159.552 394.899 158.751C391.689 157.95 388.711 156.409 386.203 154.251L388.86 222.949C388.86 222.949 395.118 229.726 404.689 228.179V158.862Z" fill="black"/>
<path d="M404.689 157.389C401.461 158.117 398.109 158.078 394.899 157.278C391.689 156.477 388.711 154.936 386.203 152.778L388.86 221.476C388.86 221.476 395.118 228.253 404.689 226.706V157.389Z" fill="#3C70FF"/>
<path opacity="0.1" d="M404.689 157.389C401.461 158.117 398.109 158.078 394.899 157.278C391.689 156.477 388.711 154.936 386.203 152.778L388.86 221.476C388.86 221.476 395.118 228.253 404.689 226.706V157.389Z" fill="black"/>
<path opacity="0.1" d="M406.161 149.647C406.161 149.647 431.802 141.802 438.487 142.907L406.161 149.647Z" fill="black"/>
<path opacity="0.1" d="M377.479 146.222C377.479 146.222 352.625 140.328 348.473 142.001L377.479 146.222Z" fill="black"/>
<path opacity="0.1" d="M422.328 150.627C422.328 150.627 439.473 144.336 445.672 147.326L422.328 150.627Z" fill="black"/>
<path opacity="0.1" d="M413.692 308.435C416.349 306.439 419.177 304.681 422.143 303.183C426.561 301.054 434.659 295.53 434.659 295.53" fill="black"/>
<path opacity="0.1" d="M348.473 233.262C348.473 233.262 337.718 242.065 334.486 242.838C331.254 243.612 329.259 250.477 329.259 250.477" fill="black"/>
<path d="M461.397 254.05L457.966 263.405C457.966 263.405 452.813 267.825 447.166 265.615C441.52 263.405 436.617 262.307 434.158 260.157C431.699 258.006 428.269 247.199 428.269 247.199C428.269 247.199 424.838 235.413 421.4 232.466C417.962 229.52 408.885 188.924 421.4 192.895C433.915 196.865 443.485 233.697 443.485 233.697C443.485 233.697 445.694 236.393 448.882 236.643C452.069 236.894 458.452 236.15 459.682 238.853C460.911 241.557 465.078 248.672 461.397 254.05Z" fill="#BE6F72"/>
<path opacity="0.1" d="M455.382 236.842C455.382 236.842 462.413 241.365 462.383 246.772L455.382 236.842Z" fill="black"/>
<path d="M395.729 105.736C413.891 105.736 428.615 91.004 428.615 72.8309C428.615 54.6577 413.891 39.9255 395.729 39.9255C377.567 39.9255 362.844 54.6577 362.844 72.8309C362.844 91.004 377.567 105.736 395.729 105.736Z" fill="#BE6F72"/>
<path d="M375.079 63.9986C379.069 63.3725 382.566 61.0521 386.38 59.7188C394.912 56.7207 404.35 58.7759 412.985 61.4793C416.298 62.518 419.663 63.6892 423.137 63.6892C426.612 63.6892 430.3 62.2675 432.075 59.2694C433.709 56.5144 433.392 52.9344 432.016 50.0394C430.639 47.1445 428.335 44.8167 426.008 42.6216C418.352 35.3878 408.855 28.6255 398.35 29.3622C394.124 29.6642 390.083 31.1743 386.196 32.8464C381.301 34.9569 376.537 37.3577 371.928 40.036C368.387 42.0912 361.828 44.8388 359.789 48.5956C355.151 57.0595 367.864 65.133 375.079 63.9986Z" fill="#3E373A"/>
<path opacity="0.1" d="M432.075 56.1756C430.3 59.1737 426.612 60.5954 423.137 60.5954C419.663 60.5954 416.298 59.4683 412.978 58.4297C404.342 55.7262 394.912 53.6637 386.372 56.6691C382.566 58.0024 379.062 60.3523 375.072 60.9416C369.256 61.855 359.892 56.787 358.876 50.3415C357.735 57.7888 368.593 64.1681 375.072 63.1515C379.062 62.5254 382.566 60.205 386.372 58.879C394.912 55.8736 404.342 57.9361 412.978 60.6396C416.298 61.6782 419.655 62.8495 423.137 62.8053C426.619 62.7611 430.3 61.391 432.075 58.3855C432.994 56.7505 433.356 54.86 433.105 53.0007C432.99 54.1201 432.639 55.2023 432.075 56.1756Z" fill="black"/>
</g>
<defs>
<linearGradient id="paint0_linear" x1="402.428" y1="369.731" x2="402.428" y2="7.09837e-07" gradientUnits="userSpaceOnUse">
<stop stop-color="#808080" stop-opacity="0.25"/>
<stop offset="0.54" stop-color="#808080" stop-opacity="0.12"/>
<stop offset="1" stop-color="#808080" stop-opacity="0.1"/>
</linearGradient>
<clipPath id="clip0">
<rect width="753" height="599" fill="white"/>
</clipPath>
</defs>
</svg>
