<svg width="51" height="51" viewBox="0 0 51 51" fill="none" xmlns="http://www.w3.org/2000/svg">
<g clip-path="url(#clip0)">
<path d="M43.0406 31.1315L41.1001 30.2267C43.4277 22.539 39.8447 14.1193 32.3635 10.6308C26.5836 7.93559 20.0446 8.92219 15.3363 12.605L18.6058 15.9975C21.9351 13.6071 26.4112 13.0278 30.3858 14.8811C35.5176 17.2741 38.0943 22.9214 36.8137 28.2279L34.2564 27.0354C33.7783 27.2013 33.3742 27.2537 33.5846 28.0238L35.6626 33.8991C35.8429 34.3719 36.373 34.6191 36.8477 34.4517L42.7118 32.2798C43.1899 32.114 43.2174 31.6027 43.0406 31.1315ZM20.473 36.1301C15.7258 33.9165 13.1646 28.9146 13.8219 23.9767L16.1436 25.0593C16.6217 24.8934 16.9922 24.5422 16.8154 24.0709L14.7113 18.1792C14.531 17.7064 14.0009 17.4591 13.5262 17.6266L7.68979 19.8114C6.96117 20.1436 7.18424 20.4885 7.36451 20.9613L9.30846 21.8678C7.51944 28.7079 11.1145 36.9388 18.4953 40.3805C23.8974 42.8995 29.9616 42.1986 34.5756 39.0888L31.3027 35.6314C28.0995 37.4889 24.0768 37.8106 20.473 36.1301Z" fill="#3C70FF"/>
</g>
<g clip-path="url(#clip1)">
<path d="M24.2426 31.3158C24.2426 32.304 23.8898 33.1053 22.9048 33.1053H19.7833C17.9996 33.1053 17.9996 26.8421 19.7833 26.8421H22.9048C23.8898 26.8421 24.2426 27.6434 24.2426 28.6316V31.3158Z" fill="#4A148C"/>
<path d="M32.7152 32.2105H32.2693V27.7369H32.7152C32.9618 27.7369 33.1611 27.5369 33.1611 27.2895C33.1611 27.0421 32.9618 26.8421 32.7152 26.8421H22.0131C20.2294 26.8421 20.2294 33.1053 22.0131 33.1053H32.7152C32.9618 33.1053 33.1611 32.9053 33.1611 32.6579C33.1611 32.4105 32.9618 32.2105 32.7152 32.2105Z" fill="#9C27B0"/>
<path d="M32.7919 32.2105H22.4589C21.5671 32.2105 21.5671 27.7368 22.4589 27.7368H32.7919C33.2842 27.7368 33.2842 32.2105 32.7919 32.2105Z" fill="#CCD6DD"/>
<path d="M22.6818 28.6316H33.0941C33.0339 28.106 32.9331 27.7369 32.7918 27.7369H22.4588C21.7226 27.7369 21.5946 30.7826 22.074 31.8469C21.8992 30.5235 22.1016 28.6316 22.6818 28.6316Z" fill="#99AAB5"/>
<path d="M22.9049 21.0263C22.9049 22.0146 22.1063 22.8158 21.1212 22.8158H19.3375C17.5538 22.8158 17.5538 17.8947 19.3375 17.8947H21.1212C22.1063 17.8947 22.9049 18.696 22.9049 19.6842V21.0263Z" fill="#265AE8"/>
<path d="M31.3773 21.9211H30.9314V18.7895H31.3773C31.6239 18.7895 31.8233 18.5895 31.8233 18.3421C31.8233 18.0947 31.6239 17.8947 31.3773 17.8947H20.6752C18.8915 17.8947 18.8915 22.8158 20.6752 22.8158H31.3773C31.6239 22.8158 31.8233 22.6158 31.8233 22.3684C31.8233 22.121 31.6239 21.9211 31.3773 21.9211Z" fill="#638CFF"/>
<path d="M31.454 21.9211H21.121C20.2292 21.9211 20.2292 18.7895 21.121 18.7895H31.454C31.9463 18.7895 31.9463 21.9211 31.454 21.9211Z" fill="#CCD6DD"/>
<path d="M21.1211 19.6843H31.7898C31.7389 19.181 31.6275 18.7895 31.454 18.7895H21.1211C20.5891 18.7895 20.3768 19.903 20.4798 20.8027C20.5494 20.1951 20.7612 19.6843 21.1211 19.6843Z" fill="#99AAB5"/>
<path d="M26.4723 25.0527C26.4723 26.0409 25.6737 26.8422 24.6886 26.8422H20.2294C18.4457 26.8422 18.4457 22.8158 20.2294 22.8158H24.6886C25.6737 22.8158 26.4723 23.6171 26.4723 24.6053V25.0527Z" fill="#E65100"/>
<path d="M33.1613 25.9474H32.7153V23.7106H33.1613C33.4079 23.7106 33.6072 23.5106 33.6072 23.2632C33.6072 23.0158 33.4079 22.8158 33.1613 22.8158H24.2428C22.4591 22.8158 22.4591 26.8422 24.2428 26.8422H33.1613C33.4079 26.8422 33.6072 26.6422 33.6072 26.3948C33.6072 26.1474 33.4079 25.9474 33.1613 25.9474Z" fill="#FF9800"/>
<path d="M33.2379 25.9474H24.6887C23.7968 25.9474 23.7968 23.7105 24.6887 23.7105H33.2379C33.7302 23.7105 33.7302 25.9474 33.2379 25.9474Z" fill="#CCD6DD"/>
<path d="M24.6886 24.6053H33.5999C33.5714 24.1302 33.451 23.7106 33.2378 23.7106H24.6886C24.1205 23.7106 23.9158 24.6174 24.0719 25.2764C24.1601 24.901 24.3648 24.6053 24.6886 24.6053Z" fill="#99AAB5"/>
</g>
<defs>
<clipPath id="clip0">
<rect width="38.2751" height="38.3547" fill="white" transform="matrix(0.905783 0.423742 -0.421496 0.90683 16.166 0)"/>
</clipPath>
<clipPath id="clip1">
<rect width="16.9451" height="17" fill="white" transform="translate(17.1079 17.0001)"/>
</clipPath>
</defs>
</svg>
