<svg width="1390" height="864" viewBox="0 0 1390 864" fill="none" xmlns="http://www.w3.org/2000/svg">
<path d="M1086.5 697.5C1231 554.391 1277.57 351.618 1043.26 364.61C1043.26 364.61 961.263 355.531 882.263 335.61C737.994 299.229 651.763 335.11 540.263 116.61C451.063 -58.1904 291.5 10.5 253.263 34.1092C-141.263 277.709 -21.9365 804.209 253.263 844.609C597.263 895.109 942.001 840.609 1086.5 697.5Z" fill="#3C70FF"/>
<path d="M1131.7 401.186C1131.7 401.186 1260.36 372.433 1096.66 204.205C1096.66 204.205 1026.1 271.054 1051.98 354.149C1062.38 387.561 1095.87 408.186 1129.8 401.579L1131.7 401.186Z" fill="#3C70FF"/>
<path opacity="0.4" d="M1131.7 401.186C1134.53 400.556 1257.61 369.592 1096.66 204.205C1096.66 204.205 1026.1 271.054 1051.98 354.149C1062.38 387.561 1095.87 408.186 1129.8 401.579L1131.7 401.186Z" fill="white"/>
<path d="M1130 402.147C1130 402.147 1062.04 299.824 1096.64 204.214" stroke="#535461" stroke-miterlimit="10"/>
<path d="M602.441 500.546C602.441 500.546 624.615 411.306 591.013 347.77C576.901 321.105 571.297 290.726 576.009 260.933C578.272 246.801 581.825 232.905 586.624 219.42" stroke="#535461" stroke-width="2" stroke-miterlimit="10"/>
<path d="M565.683 179.253C566.147 190.055 587.053 220.53 587.053 220.53C587.053 220.53 605.274 188.377 604.811 177.575C604.489 172.461 602.174 167.676 598.363 164.249C594.551 160.821 589.547 159.024 584.424 159.244C579.302 159.464 574.47 161.682 570.966 165.424C567.462 169.165 565.565 174.13 565.683 179.253V179.253Z" fill="#3C70FF"/>
<path d="M535.902 240.457C542.163 249.275 576.289 263.503 576.289 263.503C576.289 263.503 574.103 226.613 567.843 217.795C566.38 215.637 564.5 213.792 562.315 212.37C560.129 210.948 557.681 209.976 555.114 209.512C552.548 209.048 549.914 209.101 547.369 209.668C544.823 210.235 542.416 211.304 540.289 212.814C538.163 214.323 536.359 216.241 534.984 218.457C533.61 220.672 532.691 223.14 532.283 225.715C531.876 228.29 531.986 230.92 532.609 233.451C533.232 235.983 534.355 238.365 535.911 240.457H535.902Z" fill="#3C70FF"/>
<path d="M541.699 342.622C551.553 347.07 588.198 342.141 588.198 342.141C588.198 342.141 567.677 311.404 557.823 306.947C553.108 304.926 547.789 304.834 543.008 306.692C538.227 308.549 534.365 312.207 532.253 316.879C530.142 321.552 529.948 326.866 531.714 331.68C533.481 336.493 537.066 340.422 541.699 342.622V342.622Z" fill="#3C70FF"/>
<path d="M563.497 418.936C572.459 424.984 609.41 426.312 609.41 426.312C609.41 426.312 594.38 392.551 585.417 386.495C581.112 383.699 575.881 382.705 570.85 383.726C565.819 384.747 561.39 387.702 558.517 391.954C555.643 396.207 554.555 401.417 555.487 406.463C556.418 411.509 559.295 415.988 563.497 418.936Z" fill="#3C70FF"/>
<path d="M617.454 263.87C610.031 271.735 574.252 281.069 574.252 281.069C574.252 281.069 581.562 244.844 588.985 236.987C592.578 233.326 597.464 231.22 602.594 231.123C607.724 231.025 612.687 232.943 616.417 236.465C620.146 239.987 622.344 244.831 622.538 249.956C622.732 255.08 620.907 260.076 617.454 263.87V263.87Z" fill="#3C70FF"/>
<path d="M641.814 353.407C632.371 358.65 595.472 356.903 595.472 356.903C595.472 356.903 613.248 324.514 622.7 319.244C627.221 316.857 632.497 316.332 637.401 317.781C642.304 319.23 646.446 322.538 648.942 326.999C651.437 331.46 652.089 336.719 650.757 341.654C649.425 346.588 646.215 350.806 641.814 353.407V353.407Z" fill="#3C70FF"/>
<path d="M653.539 443.712C645.128 450.503 608.431 454.986 608.431 454.986C608.431 454.986 620.514 420.028 628.926 413.264C632.977 410.123 638.099 408.695 643.192 409.287C648.284 409.879 652.942 412.443 656.164 416.429C659.386 420.415 660.916 425.505 660.426 430.607C659.935 435.708 657.462 440.413 653.539 443.712V443.712Z" fill="#3C70FF"/>
<path d="M565.683 179.253C566.147 190.055 587.053 220.53 587.053 220.53C587.053 220.53 605.274 188.377 604.811 177.575C604.489 172.461 602.174 167.676 598.363 164.249C594.551 160.821 589.547 159.024 584.424 159.244C579.302 159.464 574.47 161.682 570.966 165.424C567.462 169.165 565.565 174.13 565.683 179.253V179.253Z" fill="#FC6681"/>
<path d="M535.902 240.457C542.163 249.275 576.289 263.503 576.289 263.503C576.289 263.503 574.103 226.613 567.843 217.795C566.38 215.637 564.5 213.792 562.315 212.37C560.129 210.948 557.681 209.976 555.114 209.512C552.548 209.048 549.914 209.101 547.369 209.668C544.823 210.235 542.416 211.304 540.289 212.814C538.163 214.323 536.359 216.241 534.984 218.457C533.61 220.672 532.691 223.14 532.283 225.715C531.876 228.29 531.986 230.92 532.609 233.451C533.232 235.983 534.355 238.365 535.911 240.457H535.902Z" fill="#FC6681"/>
<path d="M541.699 342.622C551.553 347.07 588.198 342.141 588.198 342.141C588.198 342.141 567.677 311.404 557.823 306.947C553.108 304.926 547.789 304.834 543.008 306.692C538.227 308.549 534.365 312.207 532.253 316.879C530.142 321.552 529.948 326.866 531.714 331.68C533.481 336.493 537.066 340.422 541.699 342.622V342.622Z" fill="#FC6681"/>
<path d="M563.497 418.936C572.459 424.984 609.41 426.312 609.41 426.312C609.41 426.312 594.38 392.551 585.417 386.495C581.112 383.699 575.881 382.705 570.85 383.726C565.819 384.747 561.39 387.702 558.517 391.954C555.643 396.207 554.555 401.417 555.487 406.463C556.418 411.509 559.295 415.988 563.497 418.936Z" fill="#FC6681"/>
<path d="M617.454 263.87C610.031 271.735 574.252 281.069 574.252 281.069C574.252 281.069 581.562 244.844 588.985 236.987C592.578 233.326 597.464 231.22 602.594 231.123C607.724 231.025 612.687 232.943 616.417 236.465C620.146 239.987 622.344 244.831 622.538 249.956C622.732 255.08 620.907 260.076 617.454 263.87V263.87Z" fill="#FC6681"/>
<path d="M641.814 353.407C632.371 358.65 595.472 356.903 595.472 356.903C595.472 356.903 613.248 324.514 622.7 319.244C627.221 316.857 632.497 316.332 637.401 317.781C642.304 319.23 646.446 322.538 648.942 326.999C651.437 331.46 652.089 336.719 650.757 341.654C649.425 346.588 646.215 350.806 641.814 353.407V353.407Z" fill="#FC6681"/>
<path d="M653.539 443.712C645.128 450.503 608.431 454.986 608.431 454.986C608.431 454.986 620.514 420.028 628.926 413.264C632.977 410.123 638.099 408.695 643.192 409.287C648.284 409.879 652.942 412.443 656.164 416.429C659.386 420.415 660.916 425.505 660.426 430.607C659.935 435.708 657.462 440.413 653.539 443.712V443.712Z" fill="#FC6681"/>
<path d="M683.617 442.908C683.617 442.908 590.62 365.013 569.95 325.728C549.28 286.444 522.936 252.604 522.936 252.604" stroke="#535461" stroke-width="2" stroke-miterlimit="10"/>
<path d="M535.133 340.402L575.354 331.331C575.354 331.331 565.875 373.752 535.133 340.402Z" fill="#638CFF"/>
<path d="M596.636 297.08L573.482 331.741C573.482 331.741 618.722 335.027 596.636 297.08Z" fill="#638CFF"/>
<path d="M519.307 307.821L556.083 301.371C556.083 301.371 532.973 336.496 519.307 307.821Z" fill="#638CFF"/>
<path d="M573.692 276.857L555.541 300.576C555.541 300.576 587.673 303.6 573.692 276.857Z" fill="#638CFF"/>
<path d="M537.057 272.129C537.057 272.129 505.711 273.623 502.082 276.612C498.453 279.601 506.751 297.133 518.695 294.275C530.639 291.417 537.057 272.129 537.057 272.129Z" fill="#638CFF"/>
<path d="M549.577 244.153C549.577 244.153 536.786 267.453 537.266 271.884C537.747 276.315 556.756 281.296 560.603 264.499C564.45 247.702 549.577 244.153 549.577 244.153Z" fill="#638CFF"/>
<path d="M507.631 259.261C506.173 254.659 508.723 249.748 513.327 248.291C517.931 246.834 522.844 249.383 524.302 253.985C525.76 258.586 523.21 263.498 518.606 264.955C514.002 266.412 509.089 263.863 507.631 259.261Z" fill="#FFD037"/>
<path d="M521.313 250.347C519.855 245.746 522.406 240.834 527.009 239.377C531.613 237.92 536.527 240.469 537.985 245.071C539.442 249.673 536.892 254.584 532.288 256.041C527.685 257.498 522.771 254.949 521.313 250.347Z" fill="#FFD037"/>
<path d="M1101.48 462.905C1101.48 462.905 1063.89 434.938 1111.1 337.055C1111.1 337.055 1174.06 259.273 1111.1 185.861C1111.1 185.861 1248.38 189.356 1245.75 316.954C1243.13 444.551 1177.12 462.905 1177.12 462.905H1101.48Z" fill="#3C70FF"/>
<path d="M1136.6 462.905C1136.6 462.905 1146.07 395.61 1171.42 354.534C1176.43 346.226 1180.03 337.149 1182.08 327.669C1190.56 290.412 1178.47 251.451 1151.1 224.787L1111.09 185.834" stroke="#535461" stroke-width="2" stroke-miterlimit="10"/>
<path d="M1302.6 389.3L1379.19 719.952C1379.19 719.952 957.599 735.736 923.647 713.643C923.647 713.643 661.924 740.08 455.863 718.773L530.866 388.916L1302.6 389.3Z" fill="#E2E2EC"/>
<path opacity="0.1" d="M1276.55 400.723L1347.95 708.993C1347.95 708.993 954.888 723.71 923.236 703.111C923.236 703.111 679.228 727.757 487.113 707.892L557.062 400.355L1276.55 400.723Z" fill="black"/>
<path d="M560.865 352.611C560.865 352.611 661.924 374.705 742.453 310.784C822.982 246.863 917.728 316.307 917.728 316.307C917.728 316.307 1012.46 246.863 1092.99 310.784C1173.52 374.705 1274.58 352.611 1274.58 352.611C1277.76 481.24 1337.74 689.574 1337.74 689.574C1337.74 689.574 1227.21 719.559 1081.15 658.802C935.084 598.044 917.719 680.109 917.719 680.109C917.719 680.109 900.354 598.036 754.292 658.802C608.23 719.568 497.701 689.574 497.701 689.574C497.701 689.574 557.709 481.24 560.865 352.611Z" fill="#F1F2FB"/>
<path opacity="0.1" d="M1112.73 682.495C1112.73 682.495 979.3 652.509 917.745 696.696C917.745 696.696 858.533 643.035 721.162 684.863" fill="black"/>
<path d="M917.728 735.343C894.616 735.343 875.881 727.216 875.881 717.191C875.881 707.166 894.616 699.039 917.728 699.039C940.839 699.039 959.575 707.166 959.575 717.191C959.575 727.216 940.839 735.343 917.728 735.343Z" fill="#E8EAF8"/>
<path opacity="0.1" d="M918.121 315.914C918.121 315.914 888.122 468.218 917.334 682.862Z" fill="black"/>
<path opacity="0.1" d="M1245.67 400.356C1245.67 400.356 1182.83 414.951 1128.44 400.356C1074.05 385.761 974.176 338.016 941.327 400.356" stroke="black" stroke-width="4" stroke-miterlimit="10"/>
<path opacity="0.1" d="M1245.67 427.186C1245.67 427.186 1182.83 441.781 1128.44 427.186C1074.05 412.591 956.27 413.377 941.327 427.186" stroke="black" stroke-width="4" stroke-miterlimit="10"/>
<path opacity="0.1" d="M1245.67 474.493C1245.67 474.493 1182.83 489.088 1128.44 474.493C1074.05 459.898 974.176 412.154 941.327 474.493" stroke="black" stroke-width="4" stroke-miterlimit="10"/>
<path opacity="0.1" d="M1245.67 501.358C1245.67 501.358 1182.83 515.954 1128.44 501.358C1074.05 486.763 956.27 487.55 941.327 501.358" stroke="black" stroke-width="4" stroke-miterlimit="10"/>
<path opacity="0.1" d="M589.772 400.356C589.772 400.356 652.612 414.951 707.006 400.356C761.4 385.761 861.27 338.016 894.12 400.356" stroke="black" stroke-width="4" stroke-miterlimit="10"/>
<path opacity="0.1" d="M589.772 427.186C589.772 427.186 652.612 441.781 707.006 427.186C761.4 412.591 879.177 413.377 894.12 427.186" stroke="black" stroke-width="4" stroke-miterlimit="10"/>
<path opacity="0.1" d="M589.772 474.493C589.772 474.493 652.612 489.088 707.006 474.493C761.4 459.898 861.27 412.154 894.12 474.493" stroke="black" stroke-width="4" stroke-miterlimit="10"/>
<path opacity="0.1" d="M589.772 501.358C589.772 501.358 652.612 515.954 707.006 501.358C761.4 486.763 879.177 487.55 894.12 501.358" stroke="black" stroke-width="4" stroke-miterlimit="10"/>
<path d="M588.495 785.438C585.872 783.436 583.38 781.068 582.62 778.21C582.23 776.692 582.438 775.082 583.201 773.713C583.964 772.344 585.224 771.32 586.72 770.851C590.489 769.68 594.511 771.804 597.571 773.954C600.631 776.104 604.12 778.56 608.116 778.105C603.98 775.116 601.995 770.24 603.15 765.87C603.344 764.918 603.826 764.048 604.531 763.379C606.621 761.553 610.416 762.339 612.916 763.772C620.882 768.343 623.103 777.161 623.146 785.106C623.951 782.239 623.269 779.259 623.295 776.314C623.321 773.368 624.3 770.117 627.343 768.536C629.29 767.695 631.397 767.292 633.516 767.356C637.092 767.251 641.088 767.539 643.528 769.68C646.562 772.302 645.775 776.786 643.134 779.705C640.494 782.624 636.472 784.459 632.773 786.478C629.949 788.016 627.098 789.808 625.367 792.237C625.146 792.559 624.961 792.905 624.816 793.268H602.371C597.44 791.241 592.779 788.611 588.495 785.438V785.438Z" fill="#638CFF"/>
<path d="M743.686 470.727C743.686 470.727 743.467 471.985 743.1 474.222C743.292 474.572 743.485 474.922 743.686 475.262C750.856 487.323 751.957 504.697 751.284 518.96C750.656 530.464 748.639 541.85 745.277 552.87C741.176 567.192 739.116 582.02 739.157 596.917C736.319 599.983 732.91 602.465 729.119 604.223C728.927 604.809 728.725 605.403 728.551 605.971C725.246 616.978 723.012 628.279 721.879 639.715L719.623 668.258C719.623 668.258 702.337 732.861 697.082 744.878C693.34 753.425 694.162 771.096 694.949 780.57C697.196 786.941 699.933 793.015 702.346 793.679C706.718 794.92 711.09 805.443 704.724 810.73C704.247 811.126 703.735 811.477 703.194 811.779L702.941 811.919L702.477 812.155L701.795 812.461L701.445 812.592L700.72 812.837L700.405 812.933C700.064 813.029 699.714 813.125 699.338 813.212C694.906 814.084 690.308 813.356 686.363 811.159C681.571 810.442 677.313 807.872 674.122 805.277L674.209 809.83H668.963L669.208 800.732C668.263 799.675 667.739 798.984 667.739 798.984C667.739 798.984 667.581 793.487 666.978 787.09L667.363 807.619H662.117L663.533 769.733C663.268 769.167 662.917 768.645 662.493 768.186C658.121 763.816 665.675 749.719 669.584 747.368C667.835 738.105 661.163 724.724 653.469 699.074C642.199 661.494 656.477 624.709 656.477 624.709V595.868C652.691 594.243 650.461 593.133 650.461 593.133C650.461 593.133 655.707 562.335 650.461 540.556C647.06 526.476 646.177 513.97 649.019 502.005C645.241 489.001 642.19 478.959 642.19 478.959L636.944 424.879C635.606 416.76 634.705 409.812 634.128 403.904C634.032 403.17 633.962 402.427 633.927 401.693C632.965 390.69 633.175 383.34 633.805 378.533C633.499 376.33 633.394 374.104 633.49 371.882C633.368 370.742 633.322 369.594 633.35 368.448C632.598 367.574 631.864 366.7 631.164 365.826C629.302 363.515 627.72 360.992 626.451 358.31C620.672 347.411 620.506 334.101 628.576 324.496C633.542 318.58 635.09 312.208 639.383 305.907C643.309 300.139 644.052 293.226 644.997 286.584C646.166 278.328 647.771 270.139 649.806 262.052C650.409 259.675 653.714 258.215 655.358 256.24C658.532 252.421 667.8 252.552 673.142 251.705C682.113 250.28 691.827 248.952 699.994 252.474C705.677 254.929 709.761 259.395 714.202 263.337C718.985 267.576 728.778 269.621 730.299 274.698C731.655 276.638 731.725 279.068 729.425 282.319C727.204 285.448 723.707 287.685 720.445 290.027C720.026 290.325 719.632 290.639 719.221 290.901C720.327 297.646 719.237 304.567 716.113 310.646C712.988 316.725 707.994 321.641 701.865 324.671C701.952 325.239 702.049 325.798 702.154 326.349C703.113 331.25 704.434 336.072 706.106 340.778C707.076 343.68 718.303 348.749 726.216 352C727.131 351.061 728.221 350.309 729.425 349.789C735.441 348.285 755.726 359.551 757.23 363.309C757.649 364.357 756.548 367.259 754.755 370.912C754.637 372.577 754.364 374.227 753.942 375.841C754.388 383.532 753.584 395.942 749.71 415.895L743.686 470.727ZM659.31 479.178C659.59 478.645 659.878 478.103 660.184 477.543C668.534 460.667 673.492 433.382 661.531 417.109C660.464 417.223 659.397 417.328 658.331 417.398C657.622 439.544 658.033 475.953 658.033 475.953C658.033 475.953 658.505 477.176 659.31 479.178ZM689.117 607.806C687.421 616.328 685.427 626.229 683.565 635.231C681.35 645.713 681.499 656.556 684.002 666.973L691.067 645.789L692.71 608.514L692.815 606.985C691.679 606.793 690.551 606.586 689.432 606.364L689.117 607.806Z" fill="url(#paint0_linear)"/>
<path d="M683.661 633.606C681.48 643.923 681.626 654.596 684.089 664.85C684.53 666.798 685.114 668.712 685.838 670.574L683.844 751.59L683.617 760.775C681.77 761.163 679.902 761.437 678.021 761.596C676.277 761.777 674.519 761.777 672.775 761.596C671.026 761.378 669.487 760.854 668.666 759.849C667.844 758.844 667.669 757.227 668.832 754.876C670.11 752.292 670.606 749.391 670.257 746.529C670.187 745.725 670.056 744.878 669.898 744.004C668.15 734.888 661.618 721.709 654.037 696.469C642.942 659.501 656.993 623.276 656.993 623.276V589.244L693.235 585.547C693.235 585.547 691.486 594.706 689.082 606.609C687.456 614.999 685.497 624.744 683.661 633.606Z" fill="#FDC2CC"/>
<path opacity="0.1" d="M683.661 633.606C681.48 643.923 681.626 654.596 684.089 664.85C684.53 666.798 685.114 668.712 685.838 670.574L683.844 751.59L683.617 760.775C681.77 761.163 679.902 761.437 678.021 761.596C676.277 761.777 674.519 761.777 672.775 761.596C671.026 761.378 669.487 760.854 668.666 759.849C667.844 758.844 667.669 757.227 668.832 754.876C670.11 752.292 670.606 749.391 670.257 746.529C670.187 745.725 670.056 744.878 669.898 744.004C668.15 734.888 661.618 721.709 654.037 696.469C642.942 659.501 656.993 623.276 656.993 623.276V589.244L693.235 585.547C693.235 585.547 691.486 594.706 689.082 606.609C687.456 614.999 685.497 624.744 683.661 633.606Z" fill="black"/>
<path d="M733.963 589.244C731.572 594.28 729.564 599.489 727.956 604.826C724.704 615.66 722.505 626.781 721.39 638.037L719.169 666.134C719.169 666.134 702.154 729.715 696.977 741.548C693.296 749.964 694.101 767.356 694.879 776.698C695.194 780.491 695.5 782.956 695.5 782.956L687.954 773.718L678.065 761.596L673.553 756.064L672.565 754.858C673.759 752.379 674.724 749.796 675.451 747.141C675.451 747.141 675.451 747.141 675.451 747.141C677.739 739.045 679.246 730.748 679.953 722.365C682.174 699.449 682.909 668.389 682.909 668.389L684.08 664.893L691.075 643.997L692.693 607.291L693.296 593.701L733.963 589.244Z" fill="#FDC2CC"/>
<path d="M676.745 748.732C680.734 753.928 683.717 759.824 685.541 766.115C687.893 774.111 692.028 786.399 695.5 787.387C700.676 788.864 705.852 803.651 692.544 806.614C679.237 809.577 668.132 794.78 668.132 794.78C668.132 794.78 667.389 768.903 662.956 764.472C658.523 760.041 666.654 745.245 670.353 743.768C671.831 743.165 674.331 745.612 676.745 748.732Z" fill="#5F5D7E"/>
<path opacity="0.1" d="M696.977 804.394C693.498 805.122 689.881 804.794 686.59 803.45C682.538 801.829 679.025 799.098 676.454 795.572C673.884 792.046 672.36 787.867 672.058 783.515C671.428 775.597 670.099 764.952 667.398 762.252C663.9 758.756 668.272 748.793 672.032 744.03C671.789 743.867 671.514 743.759 671.226 743.714C670.937 743.669 670.642 743.687 670.362 743.768C666.663 745.245 658.523 760.032 662.965 764.472C667.406 768.911 668.141 794.78 668.141 794.78C668.141 794.78 679.219 809.568 692.536 806.596C694.473 806.222 696.29 805.386 697.834 804.158C697.554 804.245 697.275 804.324 696.977 804.394Z" fill="black"/>
<path d="M664.005 765.092L662.58 803.284H667.756L667.039 765.118C667.019 764.734 666.848 764.372 666.563 764.112C666.279 763.852 665.903 763.714 665.518 763.729C665.138 763.717 664.769 763.852 664.487 764.106C664.205 764.36 664.032 764.714 664.005 765.092V765.092Z" fill="#5F5D7E"/>
<path opacity="0.15" d="M664.005 765.092L662.58 803.284H667.756L667.039 765.118C667.019 764.734 666.848 764.372 666.563 764.112C666.279 763.852 665.903 763.714 665.518 763.729C665.138 763.717 664.769 763.852 664.487 764.106C664.205 764.36 664.032 764.714 664.005 765.092V765.092Z" fill="black"/>
<path d="M683.399 750.952C687.388 756.148 690.371 762.043 692.195 768.334C694.547 776.331 698.682 788.619 702.154 789.607C707.33 791.084 712.506 805.871 699.198 808.834C685.891 811.796 674.786 796.983 674.786 796.983C674.786 796.983 674.043 771.105 669.61 766.674C665.177 762.243 673.308 747.447 677.007 745.97C678.502 745.419 680.985 747.832 683.399 750.952Z" fill="#5F5D7E"/>
<path opacity="0.1" d="M703.631 806.596C700.152 807.325 696.534 806.996 693.244 805.653C689.192 804.031 685.679 801.301 683.108 797.775C680.538 794.249 679.014 790.07 678.712 785.718C678.082 777.8 676.753 767.155 674.052 764.454C670.554 760.958 674.926 750.995 678.686 746.232C678.443 746.069 678.168 745.962 677.88 745.916C677.591 745.871 677.296 745.889 677.016 745.97C673.317 747.447 665.177 762.234 669.619 766.674C674.06 771.114 674.786 796.983 674.786 796.983C674.786 796.983 685.882 811.77 699.198 808.816C701.135 808.442 702.953 807.606 704.497 806.378C704.182 806.465 703.928 806.544 703.631 806.596Z" fill="black"/>
<path d="M670.668 767.268L669.243 805.46H674.454L673.737 767.295C673.716 766.91 673.546 766.548 673.261 766.288C672.976 766.028 672.601 765.891 672.215 765.905V765.905C671.83 765.883 671.452 766.014 671.162 766.269C670.872 766.524 670.695 766.883 670.668 767.268V767.268Z" fill="#5F5D7E"/>
<path opacity="0.15" d="M670.668 767.268L669.243 805.46H674.454L673.737 767.295C673.716 766.91 673.546 766.548 673.261 766.288C672.976 766.028 672.601 765.891 672.215 765.905V765.905C671.83 765.883 671.452 766.014 671.162 766.269C670.872 766.524 670.695 766.883 670.668 767.268V767.268Z" fill="black"/>
<path d="M733.22 357.838L703.631 404.419L668.867 408.859C668.867 408.859 647.418 366.717 648.153 364.497C648.887 362.277 659.992 357.846 670.344 349.71C680.697 341.573 668.123 307.568 668.123 307.568L702.145 310.522C702.014 310.976 701.883 311.396 701.786 311.902C700.431 317.644 700.912 324.015 701.953 329.618C702.901 334.432 704.205 339.17 705.852 343.793C707.33 348.224 733.22 357.838 733.22 357.838Z" fill="#FDC2CC"/>
<path opacity="0.1" d="M693.279 585.547C693.279 585.547 691.53 594.706 689.126 606.609C678.113 604.267 667.361 600.836 657.028 596.366V589.244L693.279 585.547Z" fill="black"/>
<path opacity="0.1" d="M733.963 589.244C731.572 594.28 729.564 599.489 727.956 604.826C717.665 609.467 704.864 609.336 692.684 607.265L693.288 593.675L733.963 589.244Z" fill="black"/>
<path d="M742.838 476.128C749.894 488.005 750.978 505.09 750.314 519.179C749.695 530.499 747.711 541.702 744.403 552.546C740.363 566.643 738.332 581.239 738.37 595.903C713.223 623.258 651.091 592.206 651.091 592.206C651.091 592.206 656.267 561.898 651.091 540.451C647.489 525.541 646.719 512.405 650.374 499.82C652.056 494.07 654.537 488.583 657.745 483.521C658.724 481.966 659.677 480.244 660.595 478.4C669.164 461.078 674.113 432.622 660.333 416.926C658.9 415.292 657.287 413.826 655.524 412.556C643.51 403.86 638.037 394.203 635.728 386.031C634.284 380.954 633.986 375.62 634.854 370.414C636.332 362.277 657.045 354.884 657.045 354.884C656.302 379.285 687.368 399.98 687.368 399.98C687.368 399.98 722.876 354.141 728.787 352.664C734.697 351.187 754.677 362.277 756.154 365.974C757.632 369.671 739.882 397.026 739.882 397.026C739.882 397.026 728.778 452.47 742.838 476.128Z" fill="#D39999"/>
<path opacity="0.1" d="M655.55 412.547C643.536 403.851 638.063 394.194 635.755 386.023C636.332 373.787 639.252 371.891 639.252 371.891C639.252 371.891 663.69 395.54 661.47 403.703C660.962 405.582 660.595 410.493 660.359 416.952C658.929 415.306 657.315 413.828 655.55 412.547V412.547Z" fill="black"/>
<path opacity="0.1" d="M696.977 581.116C691.801 596.646 665.911 569.282 665.168 557.458C664.696 549.889 656.346 520.218 650.4 499.829C652.082 494.078 654.563 488.592 657.771 483.53C658.75 481.974 659.703 480.252 660.621 478.408C663.428 485.304 674.699 513.568 674.043 521.975C673.3 531.589 678.485 545.633 678.485 545.633C678.485 545.633 702.154 565.586 696.977 581.116Z" fill="black"/>
<path d="M637.801 371.882C637.801 371.882 629.66 377.056 637.801 426.592L642.977 479.824C642.977 479.824 662.947 545.624 663.691 557.458C664.434 569.291 690.315 596.637 695.5 581.116C700.685 565.594 677.007 545.624 677.007 545.624C677.007 545.624 671.831 531.58 672.565 521.967C673.3 512.353 658.514 476.87 658.514 476.87C658.514 476.87 657.771 411.813 659.992 403.677C662.213 395.54 637.801 371.882 637.801 371.882Z" fill="#FDC2CC"/>
<path opacity="0.1" d="M747.271 365.965C747.271 365.965 756.889 368.185 747.271 417.721L741.351 471.696C741.351 471.696 728.035 549.33 728.778 558.218C729.521 567.106 699.924 590.013 697.712 577.445C695.5 564.878 712.506 544.174 712.506 544.174C712.506 544.174 719.921 527.883 719.921 497.566L721.398 473.165L731.742 385.192L747.271 365.965Z" fill="black"/>
<path d="M748.775 365.965C748.775 365.965 758.393 368.185 748.775 417.721L742.855 471.696C742.855 471.696 729.539 549.33 730.282 558.218C731.025 567.106 701.428 590.013 699.216 577.445C697.004 564.878 714.01 544.174 714.01 544.174C714.01 544.174 721.407 527.909 721.407 497.592L722.885 473.191L733.22 385.192L748.775 365.965Z" fill="#FDC2CC"/>
<path opacity="0.1" d="M753.557 368.552C753.557 368.552 757.999 392.21 726.933 400.347C695.867 408.483 730.632 372.24 730.632 372.24C730.632 372.24 742.462 354.508 753.557 368.552Z" fill="black"/>
<path d="M752.823 367.818C752.823 367.818 757.256 391.467 726.19 399.604C695.124 407.74 729.888 371.506 729.888 371.506C729.888 371.506 741.727 353.765 752.823 367.818Z" fill="#D39999"/>
<path opacity="0.1" d="M634.469 368.552C634.469 368.552 630.027 392.21 661.093 400.347C692.16 408.483 657.404 372.24 657.404 372.24C657.404 372.24 645.6 354.508 634.469 368.552Z" fill="black"/>
<path d="M635.212 367.818C635.212 367.818 630.736 391.467 661.837 399.604C692.938 407.74 658.138 371.506 658.138 371.506C658.138 371.506 646.308 353.765 635.212 367.818Z" fill="#D39999"/>
<path opacity="0.1" d="M701.953 329.609C697.869 330.797 693.296 321.236 688.47 321.236C683.355 321.236 678.537 331.47 674.27 329.303C673.026 322.411 671.219 315.633 668.867 309.036L701.787 311.937C700.44 317.644 700.912 324.007 701.953 329.609Z" fill="black"/>
<path d="M687.727 331.217C670.367 331.217 656.293 317.15 656.293 299.798C656.293 282.446 670.367 268.379 687.727 268.379C705.087 268.379 719.16 282.446 719.16 299.798C719.16 317.15 705.087 331.217 687.727 331.217Z" fill="#FDC2CC"/>
<path opacity="0.1" d="M728.804 286.234C726.618 289.311 723.173 291.478 719.964 293.82C715.998 296.66 712.25 299.795 708.755 303.198C706.285 305.454 704.172 308.07 702.486 310.959C699.994 315.608 699.662 320.869 699.364 325.991L696.313 378.891C696.112 382.387 695.911 385.961 696.802 389.379C697.707 392.29 698.979 395.074 700.588 397.664C704.619 404.813 708.764 412.101 715.251 417.765C717.42 419.644 720.06 422.073 718.915 424.538C717.988 426.522 715.138 427.16 712.69 427.448C702.416 428.829 691.032 430.009 682.384 425.001C679.123 423.113 676.421 420.404 672.766 419.233C667.677 417.616 662.064 419.303 656.643 419.294C650.89 419.294 645.399 417.38 640.03 415.492C639 415.232 638.058 414.701 637.302 413.954C636.874 413.333 636.606 412.615 636.524 411.866C635.711 407.574 634.941 403.126 636.27 398.922C637.713 394.369 641.517 390.427 641.945 385.725C642.505 379.188 636.471 373.866 632.135 368.491C622.901 357.051 620.847 340.577 630.325 329.294C635.212 323.474 636.743 317.199 640.966 311.002C644.83 305.33 645.565 298.522 646.492 291.985C647.645 283.858 649.226 275.798 651.231 267.838C651.817 265.495 655.078 264.062 656.695 262.113C659.826 258.355 668.937 258.486 674.183 257.647C683.014 256.249 692.544 254.938 700.615 258.408C706.211 260.82 710.233 265.225 714.604 269.096C720.795 274.62 735.816 276.35 728.804 286.234Z" fill="black"/>
<path d="M728.061 284.757C725.875 287.834 722.43 290.001 719.221 292.343C715.254 295.189 711.507 298.329 708.012 301.738C705.542 303.994 703.428 306.611 701.743 309.499C699.251 314.148 698.918 319.41 698.621 324.531L695.543 377.414C695.342 380.91 695.141 384.484 696.033 387.902C696.937 390.813 698.21 393.597 699.819 396.187C703.85 403.336 707.994 410.624 714.482 416.288C716.651 418.167 719.291 420.596 718.146 423.061C717.219 425.045 714.368 425.683 711.92 425.971C701.646 427.352 690.262 428.532 681.615 423.524C678.353 421.636 675.652 418.927 671.997 417.756C666.908 416.139 661.295 417.826 655.874 417.817C650.12 417.817 644.629 415.903 639.261 414.015C638.23 413.755 637.288 413.224 636.533 412.477C636.104 411.856 635.837 411.138 635.755 410.388C634.941 406.097 634.172 401.649 635.501 397.445C636.944 392.892 640.747 388.95 641.176 384.248C641.735 377.711 635.702 372.389 631.365 367.014C622.132 355.574 620.077 339.1 629.555 327.817C634.443 321.997 635.973 315.722 640.196 309.525C644.061 303.853 644.795 297.045 645.722 290.508C646.875 282.381 648.457 274.321 650.461 266.361C651.047 264.018 654.308 262.585 655.926 260.636C659.056 256.878 668.167 257.009 673.413 256.17C682.244 254.772 691.775 253.461 699.845 256.931C705.441 259.343 709.463 263.747 713.835 267.619C720.095 273.142 735.073 274.873 728.061 284.757Z" fill="#865A61"/>
<defs>
<linearGradient id="paint0_linear" x1="122990" y1="456034" x2="122990" y2="92880.7" gradientUnits="userSpaceOnUse">
<stop stop-color="#808080" stop-opacity="0.25"/>
<stop offset="0.54" stop-color="#808080" stop-opacity="0.12"/>
<stop offset="1" stop-color="#808080" stop-opacity="0.1"/>
</linearGradient>
</defs>
</svg>
