<svg width="1004" height="869" viewBox="0 0 1004 869" fill="none" xmlns="http://www.w3.org/2000/svg">
<path d="M700.5 702.5C845 559.391 891.572 356.618 657.263 369.61C657.263 369.61 575.263 360.531 496.263 340.61C351.993 304.229 265.763 340.11 154.263 121.61C65.0629 -53.1904 -106.237 0.609211 -132.737 39.1092C-234.737 456.776 -407.937 809.209 -132.737 849.609C211.263 900.109 556 845.609 700.5 702.5Z" fill="#3C70FF"/>
<path d="M745.701 406.186C745.701 406.186 874.354 377.433 710.656 209.205C710.656 209.205 640.095 276.054 665.976 359.149C676.381 392.561 709.869 413.186 743.795 406.579L745.701 406.186Z" fill="#3C70FF"/>
<path opacity="0.4" d="M745.701 406.186C748.525 405.556 871.609 374.592 710.656 209.205C710.656 209.205 640.095 276.054 665.976 359.149C676.381 392.561 709.869 413.186 743.795 406.579L745.701 406.186Z" fill="white"/>
<path d="M743.996 407.147C743.996 407.147 676.04 304.824 710.639 209.214" stroke="#535461" stroke-miterlimit="10"/>
<path d="M216.44 505.546C216.44 505.546 238.614 416.306 205.012 352.77C190.9 326.105 185.295 295.726 190.008 265.933C192.271 251.801 195.824 237.905 200.623 224.42" stroke="#535461" stroke-width="2" stroke-miterlimit="10"/>
<path d="M179.682 184.253C180.146 195.055 201.052 225.53 201.052 225.53C201.052 225.53 219.273 193.377 218.81 182.575C218.488 177.461 216.173 172.676 212.362 169.249C208.55 165.821 203.546 164.024 198.423 164.244C193.301 164.464 188.469 166.682 184.965 170.424C181.461 174.165 179.564 179.13 179.682 184.253V184.253Z" fill="#3C70FF"/>
<path d="M149.901 245.457C156.162 254.275 190.288 268.503 190.288 268.503C190.288 268.503 188.102 231.613 181.842 222.795C180.379 220.637 178.499 218.792 176.314 217.37C174.128 215.948 171.68 214.976 169.113 214.512C166.547 214.048 163.913 214.101 161.368 214.668C158.822 215.235 156.415 216.304 154.289 217.814C152.162 219.323 150.358 221.241 148.983 223.457C147.609 225.672 146.69 228.14 146.283 230.715C145.875 233.29 145.985 235.92 146.608 238.451C147.231 240.983 148.354 243.365 149.91 245.457H149.901Z" fill="#3C70FF"/>
<path d="M155.698 347.622C165.552 352.07 202.197 347.141 202.197 347.141C202.197 347.141 181.676 316.404 171.822 311.947C167.107 309.926 161.788 309.834 157.007 311.692C152.225 313.549 148.364 317.207 146.252 321.879C144.141 326.552 143.947 331.866 145.713 336.68C147.48 341.493 151.065 345.422 155.698 347.622V347.622Z" fill="#3C70FF"/>
<path d="M177.496 423.936C186.458 429.984 223.409 431.312 223.409 431.312C223.409 431.312 208.379 397.551 199.416 391.495C195.111 388.699 189.88 387.705 184.849 388.726C179.818 389.747 175.389 392.702 172.516 396.954C169.642 401.207 168.554 406.417 169.486 411.463C170.417 416.509 173.294 420.988 177.496 423.936Z" fill="#3C70FF"/>
<path d="M231.453 268.87C224.03 276.735 188.251 286.069 188.251 286.069C188.251 286.069 195.561 249.844 202.984 241.987C206.577 238.326 211.463 236.22 216.593 236.123C221.723 236.025 226.686 237.943 230.416 241.465C234.145 244.987 236.343 249.831 236.537 254.956C236.731 260.08 234.906 265.076 231.453 268.87V268.87Z" fill="#3C70FF"/>
<path d="M255.813 358.407C246.37 363.65 209.472 361.903 209.472 361.903C209.472 361.903 227.247 329.514 236.699 324.244C241.221 321.857 246.497 321.332 251.4 322.781C256.303 324.23 260.445 327.538 262.941 331.999C265.436 336.46 266.088 341.719 264.756 346.654C263.424 351.588 260.215 355.806 255.813 358.407V358.407Z" fill="#3C70FF"/>
<path d="M267.538 448.712C259.127 455.503 222.43 459.986 222.43 459.986C222.43 459.986 234.513 425.028 242.925 418.264C246.976 415.123 252.098 413.695 257.191 414.287C262.283 414.879 266.941 417.443 270.163 421.429C273.385 425.415 274.915 430.505 274.425 435.607C273.934 440.708 271.461 445.413 267.538 448.712V448.712Z" fill="#3C70FF"/>
<path d="M179.682 184.253C180.146 195.055 201.052 225.53 201.052 225.53C201.052 225.53 219.273 193.377 218.81 182.575C218.488 177.461 216.173 172.676 212.362 169.249C208.55 165.821 203.546 164.024 198.423 164.244C193.301 164.464 188.469 166.682 184.965 170.424C181.461 174.165 179.564 179.13 179.682 184.253V184.253Z" fill="#FC6681"/>
<path d="M149.901 245.457C156.162 254.275 190.288 268.503 190.288 268.503C190.288 268.503 188.102 231.613 181.842 222.795C180.379 220.637 178.499 218.792 176.314 217.37C174.128 215.948 171.68 214.976 169.113 214.512C166.547 214.048 163.913 214.101 161.368 214.668C158.822 215.235 156.415 216.304 154.289 217.814C152.162 219.323 150.358 221.241 148.983 223.457C147.609 225.672 146.69 228.14 146.283 230.715C145.875 233.29 145.985 235.92 146.608 238.451C147.231 240.983 148.354 243.365 149.91 245.457H149.901Z" fill="#FC6681"/>
<path d="M155.698 347.622C165.552 352.07 202.197 347.141 202.197 347.141C202.197 347.141 181.676 316.404 171.822 311.947C167.107 309.926 161.788 309.834 157.007 311.692C152.225 313.549 148.364 317.207 146.252 321.879C144.141 326.552 143.947 331.866 145.713 336.68C147.48 341.493 151.065 345.422 155.698 347.622V347.622Z" fill="#FC6681"/>
<path d="M177.496 423.936C186.458 429.984 223.409 431.312 223.409 431.312C223.409 431.312 208.379 397.551 199.416 391.495C195.111 388.699 189.88 387.705 184.849 388.726C179.818 389.747 175.389 392.702 172.516 396.954C169.642 401.207 168.554 406.417 169.486 411.463C170.417 416.509 173.294 420.988 177.496 423.936Z" fill="#FC6681"/>
<path d="M231.453 268.87C224.03 276.735 188.251 286.069 188.251 286.069C188.251 286.069 195.561 249.844 202.984 241.987C206.577 238.326 211.463 236.22 216.593 236.123C221.723 236.025 226.686 237.943 230.416 241.465C234.145 244.987 236.343 249.831 236.537 254.956C236.731 260.08 234.906 265.076 231.453 268.87V268.87Z" fill="#FC6681"/>
<path d="M255.813 358.407C246.37 363.65 209.472 361.903 209.472 361.903C209.472 361.903 227.247 329.514 236.699 324.244C241.221 321.857 246.497 321.332 251.4 322.781C256.303 324.23 260.445 327.538 262.941 331.999C265.436 336.46 266.088 341.719 264.756 346.654C263.424 351.588 260.215 355.806 255.813 358.407V358.407Z" fill="#FC6681"/>
<path d="M267.538 448.712C259.127 455.503 222.43 459.986 222.43 459.986C222.43 459.986 234.513 425.028 242.925 418.264C246.976 415.123 252.098 413.695 257.191 414.287C262.283 414.879 266.941 417.443 270.163 421.429C273.385 425.415 274.915 430.505 274.425 435.607C273.934 440.708 271.461 445.413 267.538 448.712V448.712Z" fill="#FC6681"/>
<path d="M297.616 447.908C297.616 447.908 204.619 370.013 183.949 330.728C163.279 291.444 136.935 257.604 136.935 257.604" stroke="#535461" stroke-width="2" stroke-miterlimit="10"/>
<path d="M149.132 345.402L189.353 336.331C189.353 336.331 179.875 378.752 149.132 345.402Z" fill="#638CFF"/>
<path d="M210.635 302.08L187.482 336.741C187.482 336.741 232.721 340.027 210.635 302.08Z" fill="#638CFF"/>
<path d="M133.306 312.821L170.082 306.371C170.082 306.371 146.972 341.496 133.306 312.821Z" fill="#638CFF"/>
<path d="M187.691 281.857L169.54 305.576C169.54 305.576 201.672 308.6 187.691 281.857Z" fill="#638CFF"/>
<path d="M151.056 277.129C151.056 277.129 119.71 278.623 116.081 281.612C112.452 284.601 120.75 302.133 132.694 299.275C144.638 296.417 151.056 277.129 151.056 277.129Z" fill="#638CFF"/>
<path d="M163.576 249.153C163.576 249.153 150.784 272.453 151.265 276.884C151.746 281.315 170.755 286.296 174.602 269.499C178.449 252.702 163.576 249.153 163.576 249.153Z" fill="#638CFF"/>
<path d="M121.63 264.261C120.172 259.659 122.722 254.748 127.326 253.291C131.93 251.834 136.844 254.383 138.301 258.985C139.759 263.586 137.209 268.498 132.605 269.955C128.001 271.412 123.088 268.863 121.63 264.261Z" fill="#FFD037"/>
<path d="M135.312 255.347C133.855 250.746 136.405 245.834 141.009 244.377C145.612 242.92 150.526 245.469 151.984 250.071C153.441 254.673 150.891 259.584 146.287 261.041C141.684 262.498 136.77 259.949 135.312 255.347Z" fill="#FFD037"/>
<path d="M715.483 467.905C715.483 467.905 677.885 439.938 725.101 342.055C725.101 342.055 788.055 264.273 725.101 190.861C725.101 190.861 862.376 194.356 859.753 321.954C857.129 449.551 791.115 467.905 791.115 467.905H715.483Z" fill="#3C70FF"/>
<path d="M750.597 467.905C750.597 467.905 760.067 400.61 785.423 359.534C790.431 351.226 794.032 342.149 796.082 332.669C804.554 295.412 792.47 256.451 765.094 229.787L725.092 190.834" stroke="#535461" stroke-width="2" stroke-miterlimit="10"/>
<path d="M916.604 394.3L993.189 724.952C993.189 724.952 571.598 740.736 537.646 718.643C537.646 718.643 275.923 745.08 69.8623 723.773L144.865 393.916L916.604 394.3Z" fill="#E2E2EC"/>
<path opacity="0.1" d="M890.548 405.723L961.948 713.993C961.948 713.993 568.887 728.71 537.235 708.111C537.235 708.111 293.227 732.757 101.112 712.892L171.061 405.355L890.548 405.723Z" fill="black"/>
<path d="M174.864 357.611C174.864 357.611 275.923 379.705 356.452 315.784C436.981 251.863 531.727 321.307 531.727 321.307C531.727 321.307 626.464 251.863 706.993 315.784C787.521 379.705 888.58 357.611 888.58 357.611C891.763 486.24 951.736 694.574 951.736 694.574C951.736 694.574 841.207 724.559 695.145 663.802C549.083 603.044 531.718 685.109 531.718 685.109C531.718 685.109 514.353 603.036 368.291 663.802C222.229 724.568 111.7 694.574 111.7 694.574C111.7 694.574 171.708 486.24 174.864 357.611Z" fill="#F1F2FB"/>
<path opacity="0.1" d="M726.727 687.495C726.727 687.495 593.299 657.509 531.744 701.696C531.744 701.696 472.532 648.035 335.161 689.863" fill="black"/>
<path d="M531.727 740.343C508.615 740.343 489.88 732.216 489.88 722.191C489.88 712.166 508.615 704.039 531.727 704.039C554.838 704.039 573.574 712.166 573.574 722.191C573.574 732.216 554.838 740.343 531.727 740.343Z" fill="#E8EAF8"/>
<path opacity="0.1" d="M532.12 320.914C532.12 320.914 502.121 473.218 531.333 687.862Z" fill="black"/>
<path opacity="0.1" d="M859.674 405.356C859.674 405.356 796.833 419.951 742.439 405.356C688.045 390.761 588.176 343.016 555.326 405.356" stroke="black" stroke-width="4" stroke-miterlimit="10"/>
<path opacity="0.1" d="M859.674 432.186C859.674 432.186 796.833 446.781 742.439 432.186C688.045 417.591 570.269 418.377 555.326 432.186" stroke="black" stroke-width="4" stroke-miterlimit="10"/>
<path opacity="0.1" d="M859.674 479.493C859.674 479.493 796.833 494.088 742.439 479.493C688.045 464.898 588.176 417.154 555.326 479.493" stroke="black" stroke-width="4" stroke-miterlimit="10"/>
<path opacity="0.1" d="M859.674 506.358C859.674 506.358 796.833 520.954 742.439 506.358C688.045 491.763 570.269 492.55 555.326 506.358" stroke="black" stroke-width="4" stroke-miterlimit="10"/>
<path opacity="0.1" d="M203.771 405.356C203.771 405.356 266.611 419.951 321.005 405.356C375.399 390.761 475.269 343.016 508.119 405.356" stroke="black" stroke-width="4" stroke-miterlimit="10"/>
<path opacity="0.1" d="M203.771 432.186C203.771 432.186 266.611 446.781 321.005 432.186C375.399 417.591 493.176 418.377 508.119 432.186" stroke="black" stroke-width="4" stroke-miterlimit="10"/>
<path opacity="0.1" d="M203.771 479.493C203.771 479.493 266.611 494.088 321.005 479.493C375.399 464.898 475.269 417.154 508.119 479.493" stroke="black" stroke-width="4" stroke-miterlimit="10"/>
<path opacity="0.1" d="M203.771 506.358C203.771 506.358 266.611 520.954 321.005 506.358C375.399 491.763 493.176 492.55 508.119 506.358" stroke="black" stroke-width="4" stroke-miterlimit="10"/>
<path d="M202.494 790.438C199.871 788.436 197.379 786.068 196.618 783.21C196.229 781.692 196.437 780.082 197.2 778.713C197.963 777.344 199.223 776.32 200.719 775.851C204.488 774.68 208.51 776.804 211.57 778.954C214.63 781.104 218.119 783.56 222.115 783.105C217.979 780.116 215.994 775.24 217.149 770.87C217.343 769.918 217.825 769.048 218.53 768.379C220.62 766.553 224.415 767.339 226.915 768.772C234.881 773.343 237.102 782.161 237.145 790.106C237.95 787.239 237.268 784.259 237.294 781.314C237.32 778.368 238.299 775.117 241.342 773.536C243.289 772.695 245.396 772.292 247.515 772.356C251.091 772.251 255.087 772.539 257.527 774.68C260.561 777.302 259.774 781.786 257.133 784.705C254.493 787.624 250.471 789.459 246.772 791.478C243.948 793.016 241.097 794.808 239.366 797.237C239.145 797.559 238.96 797.905 238.815 798.268H216.37C211.439 796.241 206.778 793.611 202.494 790.438V790.438Z" fill="#638CFF"/>
<path d="M357.685 475.727C357.685 475.727 357.466 476.985 357.099 479.222C357.291 479.572 357.484 479.922 357.685 480.262C364.855 492.323 365.956 509.697 365.283 523.96C364.655 535.464 362.638 546.85 359.276 557.87C355.175 572.192 353.115 587.02 353.156 601.917C350.319 604.983 346.909 607.465 343.118 609.223C342.926 609.809 342.725 610.403 342.55 610.971C339.245 621.978 337.011 633.279 335.878 644.715L333.622 673.258C333.622 673.258 316.336 737.861 311.081 749.878C307.339 758.425 308.161 776.096 308.948 785.57C311.195 791.941 313.932 798.015 316.345 798.679C320.717 799.92 325.089 810.443 318.723 815.73C318.246 816.126 317.734 816.477 317.193 816.779L316.94 816.919L316.476 817.155L315.794 817.461L315.444 817.592L314.719 817.837L314.404 817.933C314.063 818.029 313.713 818.125 313.337 818.212C308.905 819.084 304.307 818.356 300.362 816.159C295.57 815.442 291.312 812.872 288.121 810.277L288.208 814.83H282.962L283.207 805.732C282.262 804.675 281.738 803.984 281.738 803.984C281.738 803.984 281.58 798.487 280.977 792.09L281.362 812.619H276.116L277.532 774.733C277.267 774.167 276.916 773.645 276.492 773.186C272.12 768.816 279.674 754.719 283.583 752.368C281.834 743.105 275.162 729.724 267.468 704.074C256.198 666.494 270.476 629.709 270.476 629.709V600.868C266.69 599.243 264.46 598.133 264.46 598.133C264.46 598.133 269.706 567.335 264.46 545.556C261.059 531.476 260.176 518.97 263.018 507.005C259.24 494.001 256.189 483.959 256.189 483.959L250.943 429.879C249.605 421.76 248.704 414.812 248.127 408.904C248.031 408.17 247.961 407.427 247.926 406.693C246.964 395.69 247.174 388.34 247.804 383.533C247.498 381.33 247.393 379.104 247.489 376.882C247.367 375.742 247.321 374.594 247.349 373.448C246.597 372.574 245.863 371.7 245.163 370.826C243.301 368.515 241.72 365.992 240.45 363.31C234.671 352.411 234.505 339.101 242.575 329.496C247.541 323.58 249.089 317.208 253.382 310.907C257.308 305.139 258.051 298.226 258.996 291.584C260.165 283.328 261.77 275.139 263.805 267.052C264.408 264.675 267.713 263.215 269.357 261.24C272.531 257.421 281.799 257.552 287.141 256.705C296.112 255.28 305.826 253.952 313.993 257.474C319.676 259.929 323.76 264.395 328.201 268.337C332.984 272.576 342.777 274.621 344.298 279.698C345.654 281.638 345.724 284.068 343.424 287.319C341.203 290.448 337.706 292.685 334.444 295.027C334.025 295.325 333.631 295.639 333.22 295.901C334.326 302.646 333.236 309.567 330.112 315.646C326.987 321.725 321.993 326.641 315.864 329.671C315.952 330.239 316.048 330.798 316.153 331.349C317.112 336.25 318.433 341.072 320.105 345.778C321.075 348.68 332.302 353.749 340.215 357C341.13 356.061 342.22 355.309 343.424 354.789C349.44 353.285 369.725 364.551 371.229 368.309C371.648 369.357 370.547 372.259 368.754 375.912C368.636 377.577 368.363 379.227 367.941 380.841C368.387 388.532 367.583 400.942 363.709 420.895L357.685 475.727ZM273.309 484.178C273.589 483.645 273.877 483.103 274.183 482.543C282.533 465.667 287.491 438.382 275.53 422.109C274.463 422.223 273.396 422.328 272.33 422.398C271.621 444.544 272.032 480.953 272.032 480.953C272.032 480.953 272.504 482.176 273.309 484.178ZM303.116 612.806C301.42 621.328 299.426 631.229 297.564 640.231C295.349 650.713 295.498 661.556 298.001 671.973L305.066 650.789L306.71 613.514L306.814 611.985C305.678 611.793 304.55 611.586 303.431 611.364L303.116 612.806Z" fill="url(#paint0_linear)"/>
<path d="M297.66 638.606C295.479 648.923 295.625 659.596 298.088 669.85C298.529 671.798 299.113 673.712 299.837 675.574L297.843 756.59L297.616 765.775C295.769 766.163 293.901 766.437 292.02 766.596C290.276 766.777 288.518 766.777 286.774 766.596C285.025 766.378 283.486 765.854 282.665 764.849C281.843 763.844 281.668 762.227 282.831 759.876C284.109 757.292 284.605 754.391 284.256 751.529C284.186 750.725 284.055 749.878 283.897 749.004C282.149 739.888 275.617 726.709 268.036 701.469C256.941 664.501 270.992 628.276 270.992 628.276V594.244L307.234 590.547C307.234 590.547 305.485 599.706 303.081 611.609C301.455 619.999 299.496 629.744 297.66 638.606Z" fill="#FDC2CC"/>
<path opacity="0.1" d="M297.66 638.606C295.479 648.923 295.625 659.596 298.088 669.85C298.529 671.798 299.113 673.712 299.837 675.574L297.843 756.59L297.616 765.775C295.769 766.163 293.901 766.437 292.02 766.596C290.276 766.777 288.518 766.777 286.774 766.596C285.025 766.378 283.486 765.854 282.665 764.849C281.843 763.844 281.668 762.227 282.831 759.876C284.109 757.292 284.605 754.391 284.256 751.529C284.186 750.725 284.055 749.878 283.897 749.004C282.149 739.888 275.617 726.709 268.036 701.469C256.941 664.501 270.992 628.276 270.992 628.276V594.244L307.234 590.547C307.234 590.547 305.485 599.706 303.081 611.609C301.455 619.999 299.496 629.744 297.66 638.606Z" fill="black"/>
<path d="M347.962 594.244C345.571 599.28 343.563 604.489 341.955 609.826C338.703 620.66 336.504 631.781 335.389 643.037L333.168 671.134C333.168 671.134 316.153 734.715 310.976 746.548C307.295 754.964 308.1 772.356 308.878 781.698C309.193 785.491 309.499 787.956 309.499 787.956L301.953 778.718L292.064 766.596L287.552 761.064L286.564 759.858C287.758 757.379 288.724 754.796 289.45 752.141C289.45 752.141 289.45 752.141 289.45 752.141C291.738 744.045 293.246 735.748 293.953 727.365C296.173 704.449 296.908 673.389 296.908 673.389L298.08 669.893L305.074 648.997L306.692 612.291L307.295 598.701L347.962 594.244Z" fill="#FDC2CC"/>
<path d="M290.744 753.732C294.733 758.928 297.716 764.824 299.54 771.115C301.892 779.111 306.028 791.399 309.499 792.387C314.675 793.864 319.851 808.651 306.543 811.614C293.236 814.577 282.131 799.78 282.131 799.78C282.131 799.78 281.388 773.903 276.955 769.472C272.522 765.041 280.654 750.245 284.352 748.768C285.83 748.165 288.33 750.612 290.744 753.732Z" fill="#5F5D7E"/>
<path opacity="0.1" d="M310.976 809.394C307.497 810.122 303.88 809.794 300.589 808.45C296.537 806.829 293.024 804.098 290.454 800.572C287.883 797.046 286.359 792.867 286.057 788.515C285.428 780.597 284.099 769.952 281.397 767.252C277.899 763.756 282.271 753.793 286.031 749.03C285.788 748.867 285.513 748.759 285.225 748.714C284.936 748.669 284.641 748.687 284.361 748.768C280.662 750.245 272.522 765.032 276.964 769.472C281.405 773.911 282.14 799.78 282.14 799.78C282.14 799.78 293.218 814.568 306.535 811.596C308.472 811.222 310.289 810.386 311.833 809.158C311.554 809.245 311.274 809.324 310.976 809.394Z" fill="black"/>
<path d="M278.004 770.092L276.579 808.284H281.755L281.038 770.118C281.018 769.734 280.847 769.372 280.562 769.112C280.278 768.852 279.902 768.714 279.517 768.729C279.137 768.717 278.768 768.852 278.486 769.106C278.204 769.36 278.031 769.714 278.004 770.092V770.092Z" fill="#5F5D7E"/>
<path opacity="0.15" d="M278.004 770.092L276.579 808.284H281.755L281.038 770.118C281.018 769.734 280.847 769.372 280.562 769.112C280.278 768.852 279.902 768.714 279.517 768.729C279.137 768.717 278.768 768.852 278.486 769.106C278.204 769.36 278.031 769.714 278.004 770.092V770.092Z" fill="black"/>
<path d="M297.398 755.952C301.387 761.148 304.37 767.043 306.194 773.334C308.546 781.331 312.681 793.619 316.153 794.607C321.329 796.084 326.505 810.871 313.197 813.834C299.89 816.796 288.785 801.983 288.785 801.983C288.785 801.983 288.042 776.105 283.609 771.674C279.176 767.243 287.307 752.447 291.006 750.97C292.501 750.419 294.984 752.832 297.398 755.952Z" fill="#5F5D7E"/>
<path opacity="0.1" d="M317.63 811.596C314.151 812.325 310.534 811.996 307.243 810.653C303.191 809.031 299.678 806.301 297.107 802.775C294.537 799.249 293.013 795.07 292.711 790.718C292.081 782.8 290.752 772.155 288.051 769.454C284.553 765.958 288.925 755.995 292.685 751.232C292.442 751.069 292.167 750.962 291.879 750.916C291.59 750.871 291.295 750.889 291.015 750.97C287.316 752.447 279.176 767.234 283.618 771.674C288.059 776.114 288.785 801.983 288.785 801.983C288.785 801.983 299.881 816.77 313.197 813.816C315.134 813.442 316.952 812.606 318.496 811.378C318.181 811.465 317.928 811.544 317.63 811.596Z" fill="black"/>
<path d="M284.667 772.268L283.242 810.46H288.453L287.736 772.295C287.715 771.91 287.545 771.548 287.26 771.288C286.975 771.028 286.6 770.891 286.214 770.905V770.905C285.829 770.883 285.451 771.014 285.161 771.269C284.871 771.524 284.694 771.883 284.667 772.268V772.268Z" fill="#5F5D7E"/>
<path opacity="0.15" d="M284.667 772.268L283.242 810.46H288.453L287.736 772.295C287.715 771.91 287.545 771.548 287.26 771.288C286.975 771.028 286.6 770.891 286.214 770.905V770.905C285.829 770.883 285.451 771.014 285.161 771.269C284.871 771.524 284.694 771.883 284.667 772.268V772.268Z" fill="black"/>
<path d="M347.219 362.838L317.63 409.419L282.866 413.859C282.866 413.859 261.418 371.717 262.152 369.497C262.886 367.277 273.991 362.846 284.343 354.71C294.696 346.573 282.122 312.568 282.122 312.568L316.144 315.522C316.013 315.976 315.882 316.396 315.785 316.902C314.43 322.644 314.911 329.015 315.952 334.618C316.9 339.432 318.204 344.17 319.851 348.793C321.329 353.224 347.219 362.838 347.219 362.838Z" fill="#FDC2CC"/>
<path opacity="0.1" d="M307.278 590.547C307.278 590.547 305.529 599.706 303.125 611.609C292.112 609.267 281.36 605.836 271.027 601.366V594.244L307.278 590.547Z" fill="black"/>
<path opacity="0.1" d="M347.962 594.244C345.571 599.28 343.563 604.489 341.955 609.826C331.664 614.467 318.863 614.336 306.683 612.265L307.287 598.675L347.962 594.244Z" fill="black"/>
<path d="M356.837 481.128C363.893 493.005 364.977 510.09 364.313 524.179C363.694 535.499 361.71 546.702 358.402 557.546C354.362 571.643 352.331 586.239 352.369 600.903C327.222 628.258 265.09 597.206 265.09 597.206C265.09 597.206 270.266 566.898 265.09 545.451C261.488 530.541 260.718 517.405 264.373 504.82C266.055 499.07 268.536 493.583 271.744 488.521C272.723 486.966 273.676 485.244 274.594 483.4C283.163 466.078 288.112 437.622 274.332 421.926C272.899 420.292 271.286 418.826 269.523 417.556C257.509 408.86 252.036 399.203 249.727 391.031C248.283 385.954 247.985 380.62 248.853 375.414C250.331 367.277 271.044 359.884 271.044 359.884C270.301 384.285 301.367 404.98 301.367 404.98C301.367 404.98 336.875 359.141 342.786 357.664C348.696 356.187 368.676 367.277 370.153 370.974C371.631 374.671 353.881 402.026 353.881 402.026C353.881 402.026 342.777 457.47 356.837 481.128Z" fill="#D39999"/>
<path opacity="0.1" d="M269.549 417.547C257.535 408.851 252.062 399.194 249.754 391.023C250.331 378.787 253.251 376.891 253.251 376.891C253.251 376.891 277.69 400.54 275.469 408.703C274.962 410.582 274.594 415.493 274.358 421.952C272.928 420.306 271.314 418.828 269.549 417.547V417.547Z" fill="black"/>
<path opacity="0.1" d="M310.976 586.116C305.8 601.646 279.91 574.282 279.167 562.458C278.695 554.889 270.345 525.218 264.399 504.829C266.081 499.078 268.562 493.592 271.77 488.53C272.749 486.974 273.702 485.252 274.62 483.408C277.427 490.304 288.698 518.568 288.042 526.975C287.299 536.589 292.484 550.633 292.484 550.633C292.484 550.633 316.153 570.586 310.976 586.116Z" fill="black"/>
<path d="M251.8 376.882C251.8 376.882 243.659 382.056 251.8 431.592L256.976 484.824C256.976 484.824 276.946 550.624 277.689 562.458C278.433 574.291 304.314 601.637 309.499 586.116C314.684 570.594 291.006 550.624 291.006 550.624C291.006 550.624 285.83 536.58 286.564 526.967C287.299 517.353 272.513 481.87 272.513 481.87C272.513 481.87 271.77 416.813 273.991 408.677C276.212 400.54 251.8 376.882 251.8 376.882Z" fill="#FDC2CC"/>
<path opacity="0.1" d="M361.27 370.965C361.27 370.965 370.888 373.185 361.27 422.721L355.35 476.696C355.35 476.696 342.034 554.33 342.777 563.218C343.52 572.106 313.923 595.013 311.711 582.445C309.499 569.878 326.505 549.174 326.505 549.174C326.505 549.174 333.92 532.883 333.92 502.566L335.397 478.165L345.741 390.192L361.27 370.965Z" fill="black"/>
<path d="M362.774 370.965C362.774 370.965 372.392 373.185 362.774 422.721L356.854 476.696C356.854 476.696 343.538 554.33 344.281 563.218C345.024 572.106 315.427 595.013 313.215 582.445C311.003 569.878 328.009 549.174 328.009 549.174C328.009 549.174 335.406 532.909 335.406 502.592L336.884 478.191L347.219 390.192L362.774 370.965Z" fill="#FDC2CC"/>
<path opacity="0.1" d="M367.556 373.552C367.556 373.552 371.998 397.21 340.932 405.347C309.866 413.483 344.631 377.24 344.631 377.24C344.631 377.24 356.461 359.508 367.556 373.552Z" fill="black"/>
<path d="M366.822 372.818C366.822 372.818 371.255 396.467 340.189 404.604C309.123 412.74 343.887 376.506 343.887 376.506C343.887 376.506 355.726 358.765 366.822 372.818Z" fill="#D39999"/>
<path opacity="0.1" d="M248.468 373.552C248.468 373.552 244.026 397.21 275.093 405.347C306.159 413.483 271.403 377.24 271.403 377.24C271.403 377.24 259.599 359.508 248.468 373.552Z" fill="black"/>
<path d="M249.211 372.818C249.211 372.818 244.735 396.467 275.836 404.604C306.937 412.74 272.137 376.506 272.137 376.506C272.137 376.506 260.307 358.765 249.211 372.818Z" fill="#D39999"/>
<path opacity="0.1" d="M315.952 334.609C311.868 335.797 307.295 326.236 302.469 326.236C297.354 326.236 292.536 336.47 288.269 334.303C287.025 327.411 285.218 320.633 282.866 314.036L315.785 316.937C314.439 322.644 314.911 329.007 315.952 334.609Z" fill="black"/>
<path d="M301.726 336.217C284.366 336.217 270.292 322.15 270.292 304.798C270.292 287.446 284.366 273.379 301.726 273.379C319.086 273.379 333.159 287.446 333.159 304.798C333.159 322.15 319.086 336.217 301.726 336.217Z" fill="#FDC2CC"/>
<path opacity="0.1" d="M342.803 291.234C340.617 294.311 337.172 296.478 333.963 298.82C329.997 301.66 326.25 304.795 322.754 308.198C320.284 310.454 318.171 313.07 316.485 315.959C313.993 320.608 313.661 325.869 313.363 330.991L310.312 383.891C310.111 387.387 309.91 390.961 310.802 394.379C311.706 397.29 312.978 400.074 314.588 402.664C318.618 409.813 322.763 417.101 329.251 422.765C331.419 424.644 334.06 427.073 332.914 429.538C331.987 431.522 329.137 432.16 326.689 432.448C316.415 433.829 305.031 435.009 296.383 430.001C293.122 428.113 290.42 425.404 286.765 424.233C281.677 422.616 276.063 424.303 270.642 424.294C264.889 424.294 259.398 422.38 254.029 420.492C252.999 420.232 252.057 419.701 251.301 418.954C250.873 418.333 250.605 417.615 250.523 416.866C249.71 412.574 248.94 408.126 250.269 403.922C251.712 399.369 255.516 395.427 255.944 390.725C256.504 384.188 250.471 378.866 246.134 373.491C236.9 362.051 234.846 345.577 244.324 334.294C249.211 328.474 250.742 322.199 254.965 316.002C258.829 310.33 259.564 303.522 260.491 296.985C261.644 288.858 263.225 280.798 265.23 272.838C265.816 270.495 269.077 269.062 270.695 267.113C273.825 263.355 282.936 263.486 288.182 262.647C297.013 261.249 306.543 259.938 314.614 263.408C320.21 265.82 324.232 270.225 328.604 274.096C334.794 279.62 349.816 281.35 342.803 291.234Z" fill="black"/>
<path d="M342.06 289.757C339.874 292.834 336.429 295.001 333.22 297.343C329.253 300.189 325.506 303.329 322.011 306.738C319.541 308.994 317.428 311.611 315.742 314.499C313.25 319.148 312.918 324.41 312.62 329.531L309.542 382.414C309.341 385.91 309.14 389.484 310.032 392.902C310.936 395.813 312.209 398.597 313.818 401.187C317.849 408.336 321.993 415.624 328.481 421.288C330.65 423.167 333.29 425.596 332.145 428.061C331.218 430.045 328.367 430.683 325.919 430.971C315.646 432.352 304.261 433.532 295.614 428.524C292.353 426.636 289.651 423.927 285.996 422.756C280.907 421.139 275.294 422.826 269.873 422.817C264.119 422.817 258.628 420.903 253.26 419.015C252.229 418.755 251.288 418.224 250.532 417.477C250.103 416.856 249.836 416.138 249.754 415.388C248.94 411.097 248.171 406.649 249.5 402.445C250.943 397.892 254.746 393.95 255.175 389.248C255.734 382.711 249.701 377.389 245.364 372.014C236.131 360.574 234.076 344.1 243.554 332.817C248.442 326.997 249.972 320.722 254.195 314.525C258.06 308.853 258.795 302.045 259.721 295.508C260.874 287.381 262.456 279.321 264.46 271.361C265.046 269.018 268.308 267.585 269.925 265.636C273.055 261.878 282.166 262.009 287.412 261.17C296.243 259.772 305.774 258.461 313.844 261.931C319.44 264.343 323.462 268.747 327.834 272.619C334.095 278.142 349.072 279.873 342.06 289.757Z" fill="#865A61"/>
<defs>
<linearGradient id="paint0_linear" x1="122604" y1="456039" x2="122604" y2="92885.7" gradientUnits="userSpaceOnUse">
<stop stop-color="#808080" stop-opacity="0.25"/>
<stop offset="0.54" stop-color="#808080" stop-opacity="0.12"/>
<stop offset="1" stop-color="#808080" stop-opacity="0.1"/>
</linearGradient>
</defs>
</svg>
